<?xml version="1.0" encoding="UTF-8"?> <svg xmlns="http://www.w3.org/2000/svg" width="477" height="111" viewBox="0 0 477 111" fill="none"> <g filter="url(#filter0_d)"> <path d="M58.5234 62.3799C58.5234 66.0029 57.2132 68.9196 54.5928 71.1299C51.9723 73.3174 48.3037 74.6276 43.5869 75.0605V82.0674H38.9043V75.1973C33.3444 75.0833 28.4681 74.1035 24.2754 72.2578V63.2344C26.2578 64.2142 28.639 65.0801 31.4189 65.832C34.2217 66.584 36.7168 67.0283 38.9043 67.165V56.5693L36.6143 55.6807C32.1025 53.9033 28.901 51.9779 27.0098 49.9043C25.1413 47.8079 24.207 45.2217 24.207 42.1455C24.207 38.8415 25.4945 36.1299 28.0693 34.0107C30.667 31.8688 34.2786 30.57 38.9043 30.1143V24.8848H43.5869V29.9775C48.805 30.2054 53.5218 31.2536 57.7373 33.1221L54.5244 41.1201C50.9697 39.6618 47.3239 38.7731 43.5869 38.4541V48.5371C48.0303 50.2461 51.1862 51.7272 53.0547 52.9805C54.946 54.2337 56.3245 55.6123 57.1904 57.1162C58.0791 58.6201 58.5234 60.3747 58.5234 62.3799ZM48.2354 62.8926C48.2354 61.9355 47.848 61.1266 47.0732 60.4658C46.2985 59.805 45.1364 59.1214 43.5869 58.415V66.9258C46.6859 66.4017 48.2354 65.0573 48.2354 62.8926ZM34.4951 42.1455C34.4951 43.1481 34.8369 43.9798 35.5205 44.6406C36.2269 45.2786 37.3548 45.9395 38.9043 46.623V38.5908C35.9648 39.0238 34.4951 40.2087 34.4951 42.1455Z" fill="white"></path> <path d="M91.2826 78H80.7211V49.084C80.7211 48.4915 80.7211 47.7852 80.7211 46.9648C80.7439 46.1217 80.7667 45.2559 80.7895 44.3672C80.835 43.4557 80.8692 42.5443 80.892 41.6328C80.9376 40.7214 80.9717 39.8896 80.9945 39.1377C80.8806 39.2744 80.6869 39.4795 80.4135 39.7529C80.14 40.0264 79.8324 40.334 79.4906 40.6758C79.1488 40.9948 78.7956 41.3252 78.4311 41.667C78.0665 42.0088 77.7133 42.3164 77.3715 42.5898L71.6293 47.2041L66.5023 40.8467L82.601 28.0293H91.2826V78Z" fill="white"></path> <path d="M140.414 53.0146C140.414 57.0479 140.095 60.6481 139.457 63.8154C138.842 66.9827 137.839 69.6715 136.449 71.8818C135.082 74.0921 133.304 75.7783 131.117 76.9404C128.952 78.1025 126.332 78.6836 123.256 78.6836C120.362 78.6836 117.844 78.1025 115.702 76.9404C113.56 75.7783 111.783 74.0921 110.37 71.8818C108.957 69.6715 107.898 66.9827 107.191 63.8154C106.508 60.6481 106.166 57.0479 106.166 53.0146C106.166 48.9814 106.473 45.3698 107.089 42.1797C107.727 38.9896 108.729 36.2894 110.096 34.0791C111.464 31.8688 113.23 30.1826 115.394 29.0205C117.559 27.8356 120.179 27.2432 123.256 27.2432C126.127 27.2432 128.633 27.8242 130.775 28.9863C132.917 30.1484 134.706 31.8346 136.141 34.0449C137.577 36.2552 138.648 38.9554 139.354 42.1455C140.061 45.3356 140.414 48.9587 140.414 53.0146ZM116.693 53.0146C116.693 58.7113 117.183 62.9951 118.163 65.8662C119.143 68.7373 120.84 70.1729 123.256 70.1729C125.625 70.1729 127.323 68.7487 128.348 65.9004C129.397 63.0521 129.921 58.7568 129.921 53.0146C129.921 47.2952 129.397 43 128.348 40.1289C127.323 37.235 125.625 35.7881 123.256 35.7881C122.048 35.7881 121.023 36.1527 120.179 36.8818C119.359 37.611 118.687 38.6934 118.163 40.1289C117.639 41.5645 117.263 43.3646 117.035 45.5293C116.807 47.6712 116.693 50.1663 116.693 53.0146Z" fill="white"></path> <path d="M159.843 68.1562L160.356 68.9766C160.037 70.2982 159.649 71.6995 159.194 73.1807C158.761 74.639 158.271 76.1201 157.724 77.624C157.2 79.1051 156.641 80.5863 156.049 82.0674C155.479 83.5713 154.91 84.9954 154.34 86.3398H146.821C147.162 84.8587 147.493 83.3206 147.812 81.7256C148.154 80.1305 148.473 78.5469 148.769 76.9746C149.088 75.4023 149.373 73.8643 149.623 72.3604C149.874 70.8337 150.079 69.4323 150.238 68.1562H159.843Z" fill="white"></path> <path d="M203.471 53.0146C203.471 57.0479 203.152 60.6481 202.514 63.8154C201.899 66.9827 200.896 69.6715 199.506 71.8818C198.139 74.0921 196.362 75.7783 194.174 76.9404C192.01 78.1025 189.389 78.6836 186.313 78.6836C183.419 78.6836 180.901 78.1025 178.759 76.9404C176.617 75.7783 174.84 74.0921 173.427 71.8818C172.015 69.6715 170.955 66.9827 170.249 63.8154C169.565 60.6481 169.223 57.0479 169.223 53.0146C169.223 48.9814 169.531 45.3698 170.146 42.1797C170.784 38.9896 171.787 36.2894 173.154 34.0791C174.521 31.8688 176.287 30.1826 178.452 29.0205C180.616 27.8356 183.237 27.2432 186.313 27.2432C189.184 27.2432 191.691 27.8242 193.833 28.9863C195.975 30.1484 197.763 31.8346 199.199 34.0449C200.634 36.2552 201.705 38.9554 202.412 42.1455C203.118 45.3356 203.471 48.9587 203.471 53.0146ZM179.751 53.0146C179.751 58.7113 180.24 62.9951 181.22 65.8662C182.2 68.7373 183.898 70.1729 186.313 70.1729C188.683 70.1729 190.38 68.7487 191.406 65.9004C192.454 63.0521 192.978 58.7568 192.978 53.0146C192.978 47.2952 192.454 43 191.406 40.1289C190.38 37.235 188.683 35.7881 186.313 35.7881C185.105 35.7881 184.08 36.1527 183.237 36.8818C182.417 37.611 181.744 38.6934 181.22 40.1289C180.696 41.5645 180.32 43.3646 180.092 45.5293C179.865 47.6712 179.751 50.1663 179.751 53.0146Z" fill="white"></path> <path d="M244.126 53.0146C244.126 57.0479 243.807 60.6481 243.169 63.8154C242.554 66.9827 241.551 69.6715 240.161 71.8818C238.794 74.0921 237.017 75.7783 234.829 76.9404C232.664 78.1025 230.044 78.6836 226.968 78.6836C224.074 78.6836 221.556 78.1025 219.414 76.9404C217.272 75.7783 215.495 74.0921 214.082 71.8818C212.669 69.6715 211.61 66.9827 210.903 63.8154C210.22 60.6481 209.878 57.0479 209.878 53.0146C209.878 48.9814 210.186 45.3698 210.801 42.1797C211.439 38.9896 212.441 36.2894 213.809 34.0791C215.176 31.8688 216.942 30.1826 219.106 29.0205C221.271 27.8356 223.892 27.2432 226.968 27.2432C229.839 27.2432 232.345 27.8242 234.487 28.9863C236.629 30.1484 238.418 31.8346 239.854 34.0449C241.289 36.2552 242.36 38.9554 243.066 42.1455C243.773 45.3356 244.126 48.9587 244.126 53.0146ZM220.405 53.0146C220.405 58.7113 220.895 62.9951 221.875 65.8662C222.855 68.7373 224.552 70.1729 226.968 70.1729C229.338 70.1729 231.035 68.7487 232.061 65.9004C233.109 63.0521 233.633 58.7568 233.633 53.0146C233.633 47.2952 233.109 43 232.061 40.1289C231.035 37.235 229.338 35.7881 226.968 35.7881C225.76 35.7881 224.735 36.1527 223.892 36.8818C223.071 37.611 222.399 38.6934 221.875 40.1289C221.351 41.5645 220.975 43.3646 220.747 45.5293C220.519 47.6712 220.405 50.1663 220.405 53.0146Z" fill="white"></path> <path d="M284.781 53.0146C284.781 57.0479 284.462 60.6481 283.824 63.8154C283.208 66.9827 282.206 69.6715 280.816 71.8818C279.449 74.0921 277.671 75.7783 275.484 76.9404C273.319 78.1025 270.699 78.6836 267.622 78.6836C264.729 78.6836 262.211 78.1025 260.069 76.9404C257.927 75.7783 256.149 74.0921 254.737 71.8818C253.324 69.6715 252.264 66.9827 251.558 63.8154C250.874 60.6481 250.533 57.0479 250.533 53.0146C250.533 48.9814 250.84 45.3698 251.455 42.1797C252.093 38.9896 253.096 36.2894 254.463 34.0791C255.83 31.8688 257.596 30.1826 259.761 29.0205C261.926 27.8356 264.546 27.2432 267.622 27.2432C270.494 27.2432 273 27.8242 275.142 28.9863C277.284 30.1484 279.073 31.8346 280.508 34.0449C281.944 36.2552 283.015 38.9554 283.721 42.1455C284.427 45.3356 284.781 48.9587 284.781 53.0146ZM261.06 53.0146C261.06 58.7113 261.55 62.9951 262.53 65.8662C263.51 68.7373 265.207 70.1729 267.622 70.1729C269.992 70.1729 271.69 68.7487 272.715 65.9004C273.763 63.0521 274.288 58.7568 274.288 53.0146C274.288 47.2952 273.763 43 272.715 40.1289C271.69 37.235 269.992 35.7881 267.622 35.7881C266.415 35.7881 265.389 36.1527 264.546 36.8818C263.726 37.611 263.054 38.6934 262.53 40.1289C262.006 41.5645 261.63 43.3646 261.402 45.5293C261.174 47.6712 261.06 50.1663 261.06 53.0146Z" fill="white"></path> <path d="M356.28 28.0293V60.3633C356.28 64.0547 355.449 67.2904 353.785 70.0703C352.145 72.8503 349.764 74.9808 346.642 76.4619C343.52 77.943 339.829 78.6836 335.568 78.6836C329.142 78.6836 324.152 77.043 320.597 73.7617C317.042 70.4577 315.265 65.946 315.265 60.2266V28.0293H325.826V58.6201C325.826 62.471 326.601 65.2965 328.151 67.0967C329.7 68.8968 332.264 69.7969 335.841 69.7969C339.305 69.7969 341.811 68.8968 343.361 67.0967C344.933 65.2738 345.719 62.4255 345.719 58.5518V28.0293H356.28Z" fill="white"></path> <path d="M400.114 64.123C400.114 68.6348 398.485 72.1895 395.226 74.7871C391.99 77.3848 387.479 78.6836 381.691 78.6836C376.359 78.6836 371.642 77.681 367.541 75.6758V65.832C370.913 67.3359 373.761 68.3955 376.086 69.0107C378.433 69.626 380.574 69.9336 382.511 69.9336C384.836 69.9336 386.613 69.4893 387.843 68.6006C389.097 67.7119 389.723 66.3903 389.723 64.6357C389.723 63.6559 389.45 62.79 388.903 62.0381C388.356 61.2633 387.547 60.5228 386.476 59.8164C385.428 59.11 383.275 57.9821 380.016 56.4326C376.963 54.9971 374.673 53.6185 373.146 52.2969C371.619 50.9753 370.4 49.4372 369.489 47.6826C368.577 45.9281 368.122 43.8773 368.122 41.5303C368.122 37.1097 369.614 33.6348 372.599 31.1055C375.607 28.5762 379.754 27.3115 385.041 27.3115C387.638 27.3115 390.111 27.6191 392.458 28.2344C394.827 28.8496 397.3 29.7155 399.875 30.832L396.457 39.0693C393.791 37.9756 391.58 37.2122 389.826 36.7793C388.094 36.3464 386.385 36.1299 384.699 36.1299C382.694 36.1299 381.156 36.597 380.085 37.5312C379.014 38.4655 378.478 39.6846 378.478 41.1885C378.478 42.1227 378.695 42.943 379.128 43.6494C379.56 44.333 380.244 45.0052 381.178 45.666C382.135 46.304 384.38 47.4661 387.912 49.1523C392.583 51.3854 395.784 53.6299 397.516 55.8857C399.248 58.1188 400.114 60.8646 400.114 64.123Z" fill="white"></path> <path d="M452.731 52.5361C452.731 60.762 450.384 67.0625 445.69 71.4375C441.019 75.8125 434.263 78 425.422 78H411.271V28.0293H426.96C435.118 28.0293 441.452 30.1826 445.964 34.4893C450.476 38.7959 452.731 44.8115 452.731 52.5361ZM441.726 52.8096C441.726 42.0771 436.986 36.7109 427.507 36.7109H421.867V69.25H426.413C436.621 69.25 441.726 63.7699 441.726 52.8096Z" fill="white"></path> </g> <defs> <filter id="filter0_d" x="0.207031" y="0.884766" width="476.524" height="109.455" filterUnits="userSpaceOnUse" color-interpolation-filters="sRGB"> <feFlood flood-opacity="0" result="BackgroundImageFix"></feFlood> <feColorMatrix in="SourceAlpha" type="matrix" values="0 0 0 0 0 0 0 0 0 0 0 0 0 0 0 0 0 0 127 0"></feColorMatrix> <feOffset></feOffset> <feGaussianBlur stdDeviation="12"></feGaussianBlur> <feColorMatrix type="matrix" values="0 0 0 0 0.984314 0 0 0 0 0.807843 0 0 0 0 0.396078 0 0 0 0.6 0"></feColorMatrix> <feBlend mode="normal" in2="BackgroundImageFix" result="effect1_dropShadow"></feBlend> <feBlend mode="normal" in="SourceGraphic" in2="effect1_dropShadow" result="shape"></feBlend> </filter> </defs> </svg> 