<?xml version="1.0" encoding="UTF-8"?> <svg xmlns="http://www.w3.org/2000/svg" width="1270" height="1266" viewBox="0 0 1270 1266" fill="none"> <rect opacity="0.4" x="52" y="29" width="1198" height="347" fill="url(#paint0_radial)"></rect> <path opacity="0.7" d="M44.5 29L33 22H1270L1253 29H44.5Z" fill="url(#paint1_linear)"></path> <path opacity="0.1" d="M1260 378L1266 385L36 385L41.004 378L1260 378Z" fill="url(#paint2_linear)"></path> <path fill-rule="evenodd" clip-rule="evenodd" d="M853.999 12H450.949L466.553 52H838.396L853.999 12.0014V12Z" fill="#06011B"></path> <path opacity="0.7" fill-rule="evenodd" clip-rule="evenodd" d="M853.999 12H450.949L466.553 52H838.396L853.999 12.0014V12Z" fill="url(#paint3_linear)"></path> <path fill-rule="evenodd" clip-rule="evenodd" d="M552.406 66H750.594L760 2H543L552.406 66Z" fill="url(#paint4_linear)"></path> <g filter="url(#filter0_d)"> <path d="M609 34.418H610.395C611.698 34.418 612.673 34.1628 613.32 33.6523C613.967 33.1328 614.291 32.3809 614.291 31.3965C614.291 30.403 614.018 29.6693 613.471 29.1953C612.933 28.7214 612.085 28.4844 610.928 28.4844H609V34.418ZM618.57 31.2461C618.57 33.3971 617.896 35.0423 616.547 36.1816C615.207 37.321 613.298 37.8906 610.818 37.8906H609V45H604.762V25.0117H611.146C613.571 25.0117 615.412 25.5358 616.67 26.584C617.937 27.623 618.57 29.1771 618.57 31.2461Z" fill="white"></path> <path d="M627.422 33.8848H628.789C630.129 33.8848 631.118 33.6615 631.756 33.2148C632.394 32.7682 632.713 32.0664 632.713 31.1094C632.713 30.1615 632.385 29.487 631.729 29.0859C631.082 28.6849 630.074 28.4844 628.707 28.4844H627.422V33.8848ZM627.422 37.3301V45H623.184V25.0117H629.008C631.724 25.0117 633.734 25.5085 635.037 26.502C636.341 27.4863 636.992 28.9857 636.992 31C636.992 32.1758 636.669 33.224 636.022 34.1445C635.375 35.056 634.458 35.7715 633.274 36.291L639.153 45H634.449L629.678 37.3301H627.422Z" fill="white"></path> <path d="M649.987 45H640.895V42.5938L643.328 41.4727V28.5391L640.895 27.418V25.0117H649.987V27.418L647.553 28.5391V41.4727L649.987 42.5938V45Z" fill="white"></path> <path d="M667.288 45H652.413V42.252L661.997 28.5117H652.672V25.0117H667.028V27.7461L657.458 41.5H667.288V45Z" fill="white"></path> <path d="M682.825 45H671.313V25.0117H682.825V28.4844H675.551V32.873H682.319V36.3457H675.551V41.5H682.825V45Z" fill="white"></path> <path d="M699.647 39.4492C699.647 41.2539 698.996 42.6758 697.692 43.7148C696.398 44.7539 694.593 45.2734 692.278 45.2734C690.145 45.2734 688.259 44.8724 686.618 44.0703V40.1328C687.967 40.7344 689.106 41.1582 690.036 41.4043C690.975 41.6504 691.832 41.7734 692.606 41.7734C693.536 41.7734 694.247 41.5957 694.739 41.2402C695.24 40.8848 695.491 40.3561 695.491 39.6543C695.491 39.2624 695.382 38.916 695.163 38.6152C694.944 38.3053 694.621 38.0091 694.192 37.7266C693.773 37.444 692.912 36.9928 691.608 36.373C690.387 35.7988 689.471 35.2474 688.86 34.7188C688.249 34.1901 687.762 33.5749 687.397 32.873C687.033 32.1712 686.85 31.3509 686.85 30.4121C686.85 28.6439 687.447 27.2539 688.641 26.2422C689.845 25.2305 691.503 24.7246 693.618 24.7246C694.657 24.7246 695.646 24.8477 696.585 25.0938C697.533 25.3398 698.522 25.6862 699.552 26.1328L698.184 29.4277C697.118 28.9902 696.234 28.6849 695.532 28.5117C694.839 28.3385 694.156 28.252 693.481 28.252C692.679 28.252 692.064 28.4388 691.636 28.8125C691.207 29.1862 690.993 29.6738 690.993 30.2754C690.993 30.6491 691.08 30.9772 691.253 31.2598C691.426 31.5332 691.699 31.8021 692.073 32.0664C692.456 32.3216 693.354 32.7865 694.766 33.4609C696.635 34.3542 697.915 35.252 698.608 36.1543C699.301 37.0475 699.647 38.1458 699.647 39.4492Z" fill="white"></path> </g> <ellipse cx="386.998" cy="103.5" rx="10" ry="7.5" transform="rotate(-26.1932 386.998 103.5)" fill="url(#paint5_linear)" fill-opacity="0.6"></ellipse> <ellipse cx="130.285" cy="96.1439" rx="10" ry="7.5" transform="rotate(-84 130.285 96.1439)" fill="url(#paint6_linear)" fill-opacity="0.6"></ellipse> <ellipse opacity="0.2" cx="434.401" cy="69.8141" rx="4.91176" ry="3.68382" transform="rotate(-26.1932 434.401 69.8141)" fill="url(#paint7_linear)" fill-opacity="0.6"></ellipse> <ellipse opacity="0.2" cx="483.035" cy="90.4736" rx="4.91176" ry="3.68382" transform="rotate(-108.784 483.035 90.4736)" fill="url(#paint8_linear)" fill-opacity="0.6"></ellipse> <ellipse cx="245.284" cy="370.863" rx="10" ry="7.5" transform="rotate(-26.1932 245.284 370.863)" fill="url(#paint9_linear)" fill-opacity="0.6"></ellipse> <ellipse opacity="0.2" cx="341.32" cy="357.836" rx="4.91176" ry="3.68382" transform="rotate(-108.784 341.32 357.836)" fill="url(#paint10_linear)" fill-opacity="0.6"></ellipse> <ellipse opacity="0.2" cx="511.114" cy="94.6415" rx="1.29518" ry="2.5" transform="rotate(-108.784 511.114 94.6415)" fill="url(#paint11_linear)" fill-opacity="0.6"></ellipse> <ellipse opacity="0.2" cx="5.07011" cy="363.836" rx="4.91176" ry="3.68382" transform="rotate(-108.784 5.07011 363.836)" fill="url(#paint12_linear)" fill-opacity="0.6"></ellipse> <ellipse opacity="0.2" cx="33.149" cy="368.004" rx="1.29518" ry="2.5" transform="rotate(-108.784 33.149 368.004)" fill="url(#paint13_linear)" fill-opacity="0.6"></ellipse> <ellipse opacity="0.2" cx="669.07" cy="446.837" rx="4.91176" ry="3.68382" transform="rotate(-108.784 669.07 446.837)" fill="url(#paint14_linear)" fill-opacity="0.6"></ellipse> <ellipse opacity="0.2" cx="697.149" cy="451.004" rx="1.29518" ry="2.5" transform="rotate(-108.784 697.149 451.004)" fill="url(#paint15_linear)" fill-opacity="0.6"></ellipse> <ellipse cx="542.726" cy="69.8276" rx="3.84623" ry="3.68382" transform="rotate(-108.784 542.726 69.8276)" fill="url(#paint16_linear)" fill-opacity="0.6"></ellipse> <ellipse opacity="0.5" cx="636.14" cy="83.5928" rx="5.38268" ry="7.02857" transform="rotate(-108.784 636.14 83.5928)" fill="url(#paint17_linear)" fill-opacity="0.6"></ellipse> <g opacity="0.5"> <ellipse cx="678.336" cy="135.762" rx="11" ry="10.9995" transform="rotate(-108.784 678.336 135.762)" fill="url(#paint18_linear)" fill-opacity="0.22"></ellipse> <ellipse cx="678.336" cy="135.762" rx="11" ry="10.9995" transform="rotate(-108.784 678.336 135.762)" fill="url(#paint19_linear)" fill-opacity="0.22"></ellipse> </g> <g opacity="0.5"> <ellipse cx="706.549" cy="89.5488" rx="4.37357" ry="4.37335" transform="rotate(-108.784 706.549 89.5488)" fill="url(#paint20_linear)" fill-opacity="0.22"></ellipse> <ellipse cx="706.549" cy="89.5488" rx="4.37357" ry="4.37335" transform="rotate(-108.784 706.549 89.5488)" fill="url(#paint21_linear)" fill-opacity="0.22"></ellipse> </g> <ellipse cx="680.47" cy="280.412" rx="10" ry="7.5" transform="rotate(-156.039 680.47 280.412)" fill="url(#paint22_linear)" fill-opacity="0.6"></ellipse> <ellipse opacity="0.2" cx="624.234" cy="265.602" rx="4.91176" ry="3.68382" transform="rotate(-156.039 624.234 265.602)" fill="url(#paint23_linear)" fill-opacity="0.6"></ellipse> <ellipse opacity="0.2" cx="608.935" cy="215.025" rx="4.91176" ry="3.68382" transform="rotate(121.37 608.935 215.025)" fill="url(#paint24_linear)" fill-opacity="0.6"></ellipse> <ellipse opacity="0.2" cx="594.144" cy="190.796" rx="1.29518" ry="2.5" transform="rotate(121.37 594.144 190.796)" fill="url(#paint25_linear)" fill-opacity="0.6"></ellipse> <g opacity="0.5"> <ellipse cx="465.013" cy="44.0109" rx="4.37357" ry="4.37335" transform="rotate(121.37 465.013 44.0109)" fill="url(#paint26_linear)" fill-opacity="0.22"></ellipse> <ellipse cx="465.013" cy="44.0109" rx="4.37357" ry="4.37335" transform="rotate(121.37 465.013 44.0109)" fill="url(#paint27_linear)" fill-opacity="0.22"></ellipse> </g> <ellipse opacity="0.5" cx="751.547" cy="90.5488" rx="4.37357" ry="4.37335" transform="rotate(-57.2878 751.547 90.5488)" fill="url(#paint28_linear)" fill-opacity="0.22"></ellipse> <ellipse opacity="0.5" cx="526.043" cy="123.043" rx="4.37357" ry="4.37335" transform="rotate(-57.2878 526.043 123.043)" fill="url(#paint29_linear)" fill-opacity="0.22"></ellipse> <ellipse opacity="0.2" cx="893.07" cy="167.474" rx="4.91176" ry="3.68382" transform="rotate(-108.784 893.07 167.474)" fill="url(#paint30_linear)" fill-opacity="0.6"></ellipse> <ellipse opacity="0.2" cx="902.786" cy="80.0312" rx="1.29518" ry="2.5" transform="rotate(-108.784 902.786 80.0312)" fill="url(#paint31_linear)" fill-opacity="0.6"></ellipse> <ellipse cx="1022.76" cy="106.828" rx="3.84623" ry="3.68382" transform="rotate(-108.784 1022.76 106.828)" fill="url(#paint32_linear)" fill-opacity="0.6"></ellipse> <ellipse opacity="0.5" cx="936.078" cy="200.043" rx="4.37357" ry="4.37335" transform="rotate(-57.2878 936.078 200.043)" fill="url(#paint33_linear)" fill-opacity="0.22"></ellipse> <ellipse opacity="0.2" cx="838.86" cy="189.508" rx="8.40712" ry="6.30534" transform="rotate(175.114 838.86 189.508)" fill="url(#paint34_linear)" fill-opacity="0.6"></ellipse> <ellipse opacity="0.2" cx="838.914" cy="276.998" rx="8.40712" ry="6.30534" transform="rotate(175.114 838.914 276.998)" fill="url(#paint35_linear)" fill-opacity="0.6"></ellipse> <ellipse opacity="0.2" cx="555.914" cy="350.998" rx="8.40712" ry="6.30534" transform="rotate(175.114 555.914 350.998)" fill="url(#paint36_linear)" fill-opacity="0.6"></ellipse> <ellipse opacity="0.2" cx="351.07" cy="707.474" rx="4.91176" ry="3.68382" transform="rotate(-108.784 351.07 707.474)" fill="url(#paint37_linear)" fill-opacity="0.6"></ellipse> <ellipse opacity="0.2" cx="379.149" cy="711.642" rx="1.29518" ry="2.5" transform="rotate(-108.784 379.149 711.642)" fill="url(#paint38_linear)" fill-opacity="0.6"></ellipse> <ellipse cx="410.761" cy="686.828" rx="3.84623" ry="3.68382" transform="rotate(-108.784 410.761 686.828)" fill="url(#paint39_linear)" fill-opacity="0.6"></ellipse> <ellipse opacity="0.5" cx="504.175" cy="700.593" rx="5.38268" ry="7.02857" transform="rotate(-108.784 504.175 700.593)" fill="url(#paint40_linear)" fill-opacity="0.6"></ellipse> <ellipse opacity="0.2" cx="789.184" cy="788.642" rx="1.29518" ry="2.5" transform="rotate(-108.784 789.184 788.642)" fill="url(#paint41_linear)" fill-opacity="0.6"></ellipse> <ellipse opacity="0.2" cx="706.895" cy="806.508" rx="8.40712" ry="6.30534" transform="rotate(175.114 706.895 806.508)" fill="url(#paint42_linear)" fill-opacity="0.6"></ellipse> <ellipse opacity="0.2" cx="725.364" cy="761.568" rx="2.21687" ry="4.27907" transform="rotate(175.114 725.364 761.568)" fill="url(#paint43_linear)" fill-opacity="0.6"></ellipse> <ellipse opacity="0.2" cx="777.865" cy="1260.67" rx="4.91176" ry="3.68382" transform="rotate(-160.374 777.865 1260.67)" fill="url(#paint44_linear)" fill-opacity="0.6"></ellipse> <ellipse opacity="0.2" cx="798.577" cy="1241.25" rx="1.29518" ry="2.5" transform="rotate(-160.374 798.577 1241.25)" fill="url(#paint45_linear)" fill-opacity="0.6"></ellipse> <ellipse cx="798.771" cy="1201.07" rx="3.84623" ry="3.68382" transform="rotate(-160.374 798.771 1201.07)" fill="url(#paint46_linear)" fill-opacity="0.6"></ellipse> <ellipse opacity="0.5" cx="867.591" cy="1136.42" rx="5.38268" ry="7.02857" transform="rotate(-160.374 867.591 1136.42)" fill="url(#paint47_linear)" fill-opacity="0.6"></ellipse> <ellipse opacity="0.2" cx="1052.79" cy="1000.98" rx="2.21687" ry="4.27907" transform="rotate(123.523 1052.79 1000.98)" fill="url(#paint48_linear)" fill-opacity="0.6"></ellipse> <ellipse cx="829.095" cy="81.8431" rx="6.58332" ry="6.30534" transform="rotate(175.114 829.095 81.8431)" fill="url(#paint49_linear)" fill-opacity="0.6"></ellipse> <ellipse cx="801.095" cy="110.843" rx="6.58332" ry="6.30534" transform="rotate(175.114 801.095 110.843)" fill="url(#paint50_linear)" fill-opacity="0.6"></ellipse> <ellipse opacity="0.2" cx="872.07" cy="399.474" rx="4.91176" ry="3.68382" transform="rotate(-108.784 872.07 399.474)" fill="url(#paint51_linear)" fill-opacity="0.6"></ellipse> <ellipse opacity="0.2" cx="836.329" cy="376.568" rx="2.21687" ry="4.27907" transform="rotate(175.114 836.329 376.568)" fill="url(#paint52_linear)" fill-opacity="0.6"></ellipse> <ellipse cx="808.095" cy="313.843" rx="6.58332" ry="6.30534" transform="rotate(175.114 808.095 313.843)" fill="url(#paint53_linear)" fill-opacity="0.6"></ellipse> <ellipse opacity="0.2" cx="1027.91" cy="585.999" rx="8.40712" ry="6.30534" transform="rotate(175.114 1027.91 585.999)" fill="url(#paint54_linear)" fill-opacity="0.6"></ellipse> <ellipse cx="883.095" cy="740.843" rx="6.58332" ry="6.30534" transform="rotate(175.114 883.095 740.843)" fill="url(#paint55_linear)" fill-opacity="0.6"></ellipse> <ellipse cx="339.095" cy="1145.84" rx="6.58332" ry="6.30534" transform="rotate(175.114 339.095 1145.84)" fill="url(#paint56_linear)" fill-opacity="0.6"></ellipse> <ellipse opacity="0.5" cx="910.656" cy="131.439" rx="7.48593" ry="7.48556" transform="rotate(-133.39 910.656 131.439)" fill="url(#paint57_linear)" fill-opacity="0.22"></ellipse> <ellipse opacity="0.5" cx="964.582" cy="39.5823" rx="7.48593" ry="7.48556" transform="rotate(-133.39 964.582 39.5823)" fill="url(#paint58_linear)" fill-opacity="0.22"></ellipse> <ellipse cx="641.095" cy="276.986" rx="6.58332" ry="6.30534" transform="rotate(175.114 641.095 276.986)" fill="url(#paint59_linear)" fill-opacity="0.6"></ellipse> <ellipse opacity="0.5" cx="743.656" cy="94.5823" rx="7.48593" ry="7.48556" transform="rotate(-133.39 743.656 94.5823)" fill="url(#paint60_linear)" fill-opacity="0.22"></ellipse> <ellipse cx="390.313" cy="206.786" rx="4.37357" ry="9.44831" transform="rotate(-57.2878 390.313 206.786)" fill="url(#paint61_linear)" fill-opacity="0.5"></ellipse> <ellipse cx="104.313" cy="245.786" rx="4.37357" ry="9.44831" transform="rotate(-57.2878 104.313 245.786)" fill="url(#paint62_linear)" fill-opacity="0.5"></ellipse> <defs> <filter id="filter0_d" x="580.762" y="0.724609" width="142.886" height="68.5488" filterUnits="userSpaceOnUse" color-interpolation-filters="sRGB"> <feFlood flood-opacity="0" result="BackgroundImageFix"></feFlood> <feColorMatrix in="SourceAlpha" type="matrix" values="0 0 0 0 0 0 0 0 0 0 0 0 0 0 0 0 0 0 127 0"></feColorMatrix> <feOffset></feOffset> <feGaussianBlur stdDeviation="12"></feGaussianBlur> <feColorMatrix type="matrix" values="0 0 0 0 0.984314 0 0 0 0 0.807843 0 0 0 0 0.396078 0 0 0 0.6 0"></feColorMatrix> <feBlend mode="normal" in2="BackgroundImageFix" result="effect1_dropShadow"></feBlend> <feBlend mode="normal" in="SourceGraphic" in2="effect1_dropShadow" result="shape"></feBlend> </filter> <radialGradient id="paint0_radial" cx="0" cy="0" r="1" gradientUnits="userSpaceOnUse" gradientTransform="translate(651 -39.1775) rotate(-90) scale(359.695 577.85)"> <stop stop-color="#FFBD4A" stop-opacity="0.6"></stop> <stop offset="1" stop-color="#FFBD4A" stop-opacity="0"></stop> </radialGradient> <linearGradient id="paint1_linear" x1="33" y1="25.4984" x2="1270" y2="22.4999" gradientUnits="userSpaceOnUse"> <stop stop-color="#FFBD4A" stop-opacity="0.2"></stop> <stop offset="0.505208" stop-color="#FFBD4A"></stop> <stop offset="1" stop-color="#FFBD4A" stop-opacity="0.2"></stop> </linearGradient> <linearGradient id="paint2_linear" x1="1266" y1="381.502" x2="36" y2="384.466" gradientUnits="userSpaceOnUse"> <stop stop-color="#FFBD4A" stop-opacity="0.2"></stop> <stop offset="0.505208" stop-color="#FFBD4A"></stop> <stop offset="1" stop-color="#FFBD4A" stop-opacity="0.2"></stop> </linearGradient> <linearGradient id="paint3_linear" x1="450.949" y1="32" x2="853.999" y2="32" gradientUnits="userSpaceOnUse"> <stop stop-color="#FF9900"></stop> <stop offset="0.520833" stop-color="#FFBD4A"></stop> <stop offset="1" stop-color="#FF9900"></stop> </linearGradient> <linearGradient id="paint4_linear" x1="543" y1="34" x2="760" y2="34" gradientUnits="userSpaceOnUse"> <stop stop-color="#FF9900"></stop> <stop offset="0.520833" stop-color="#FFBD4A"></stop> <stop offset="1" stop-color="#FF9900"></stop> </linearGradient> <linearGradient id="paint5_linear" x1="379.998" y1="93" x2="390.732" y2="117.834" gradientUnits="userSpaceOnUse"> <stop stop-color="#FFA71C"></stop> <stop offset="1" stop-color="#FFA71C" stop-opacity="0"></stop> </linearGradient> <linearGradient id="paint6_linear" x1="123.285" y1="85.6439" x2="134.019" y2="110.477" gradientUnits="userSpaceOnUse"> <stop stop-color="#FFA71C"></stop> <stop offset="1" stop-color="#FFA71C" stop-opacity="0"></stop> </linearGradient> <linearGradient id="paint7_linear" x1="430.962" y1="64.6568" x2="436.234" y2="76.8544" gradientUnits="userSpaceOnUse"> <stop stop-color="#FFA71C"></stop> <stop offset="1" stop-color="#FFA71C" stop-opacity="0"></stop> </linearGradient> <linearGradient id="paint8_linear" x1="479.597" y1="85.3162" x2="484.869" y2="97.5139" gradientUnits="userSpaceOnUse"> <stop stop-color="#FFA71C"></stop> <stop offset="1" stop-color="#FFA71C" stop-opacity="0"></stop> </linearGradient> <linearGradient id="paint9_linear" x1="238.284" y1="360.363" x2="249.017" y2="385.196" gradientUnits="userSpaceOnUse"> <stop stop-color="#FFA71C"></stop> <stop offset="1" stop-color="#FFA71C" stop-opacity="0"></stop> </linearGradient> <linearGradient id="paint10_linear" x1="337.882" y1="352.679" x2="343.154" y2="364.877" gradientUnits="userSpaceOnUse"> <stop stop-color="#FFA71C"></stop> <stop offset="1" stop-color="#FFA71C" stop-opacity="0"></stop> </linearGradient> <linearGradient id="paint11_linear" x1="510.207" y1="91.1415" x2="515.092" y2="95.5326" gradientUnits="userSpaceOnUse"> <stop stop-color="#FFA71C"></stop> <stop offset="1" stop-color="#FFA71C" stop-opacity="0"></stop> </linearGradient> <linearGradient id="paint12_linear" x1="1.63188" y1="358.679" x2="6.90375" y2="370.877" gradientUnits="userSpaceOnUse"> <stop stop-color="#FFA71C"></stop> <stop offset="1" stop-color="#FFA71C" stop-opacity="0"></stop> </linearGradient> <linearGradient id="paint13_linear" x1="32.2424" y1="364.504" x2="37.1268" y2="368.895" gradientUnits="userSpaceOnUse"> <stop stop-color="#FFA71C"></stop> <stop offset="1" stop-color="#FFA71C" stop-opacity="0"></stop> </linearGradient> <linearGradient id="paint14_linear" x1="665.632" y1="441.679" x2="670.904" y2="453.877" gradientUnits="userSpaceOnUse"> <stop stop-color="#FFA71C"></stop> <stop offset="1" stop-color="#FFA71C" stop-opacity="0"></stop> </linearGradient> <linearGradient id="paint15_linear" x1="696.242" y1="447.504" x2="701.127" y2="451.896" gradientUnits="userSpaceOnUse"> <stop stop-color="#FFA71C"></stop> <stop offset="1" stop-color="#FFA71C" stop-opacity="0"></stop> </linearGradient> <linearGradient id="paint16_linear" x1="540.033" y1="64.6702" x2="546.158" y2="75.7662" gradientUnits="userSpaceOnUse"> <stop stop-color="#FFA71C"></stop> <stop offset="1" stop-color="#FFA71C" stop-opacity="0"></stop> </linearGradient> <linearGradient id="paint17_linear" x1="632.372" y1="73.7528" x2="645.642" y2="91.3875" gradientUnits="userSpaceOnUse"> <stop stop-color="#FFA71C"></stop> <stop offset="1" stop-color="#FFA71C" stop-opacity="0"></stop> </linearGradient> <linearGradient id="paint18_linear" x1="670.636" y1="120.363" x2="689.335" y2="152.812" gradientUnits="userSpaceOnUse"> <stop stop-color="#FFA71C"></stop> <stop offset="1" stop-color="#FFA71C" stop-opacity="0"></stop> </linearGradient> <linearGradient id="paint19_linear" x1="670.636" y1="120.363" x2="689.335" y2="152.812" gradientUnits="userSpaceOnUse"> <stop stop-color="#FFA71C"></stop> <stop offset="1" stop-color="#FFA71C" stop-opacity="0"></stop> </linearGradient> <linearGradient id="paint20_linear" x1="703.487" y1="83.4261" x2="710.922" y2="96.3278" gradientUnits="userSpaceOnUse"> <stop stop-color="#FFA71C"></stop> <stop offset="1" stop-color="#FFA71C" stop-opacity="0"></stop> </linearGradient> <linearGradient id="paint21_linear" x1="703.487" y1="83.4261" x2="710.922" y2="96.3278" gradientUnits="userSpaceOnUse"> <stop stop-color="#FFA71C"></stop> <stop offset="1" stop-color="#FFA71C" stop-opacity="0"></stop> </linearGradient> <linearGradient id="paint22_linear" x1="673.47" y1="269.912" x2="684.203" y2="294.746" gradientUnits="userSpaceOnUse"> <stop stop-color="#FFA71C"></stop> <stop offset="1" stop-color="#FFA71C" stop-opacity="0"></stop> </linearGradient> <linearGradient id="paint23_linear" x1="620.796" y1="260.445" x2="626.068" y2="272.642" gradientUnits="userSpaceOnUse"> <stop stop-color="#FFA71C"></stop> <stop offset="1" stop-color="#FFA71C" stop-opacity="0"></stop> </linearGradient> <linearGradient id="paint24_linear" x1="605.496" y1="209.868" x2="610.768" y2="222.065" gradientUnits="userSpaceOnUse"> <stop stop-color="#FFA71C"></stop> <stop offset="1" stop-color="#FFA71C" stop-opacity="0"></stop> </linearGradient> <linearGradient id="paint25_linear" x1="593.238" y1="187.296" x2="598.122" y2="191.687" gradientUnits="userSpaceOnUse"> <stop stop-color="#FFA71C"></stop> <stop offset="1" stop-color="#FFA71C" stop-opacity="0"></stop> </linearGradient> <linearGradient id="paint26_linear" x1="461.951" y1="37.8882" x2="469.386" y2="50.7899" gradientUnits="userSpaceOnUse"> <stop stop-color="#FFA71C"></stop> <stop offset="1" stop-color="#FFA71C" stop-opacity="0"></stop> </linearGradient> <linearGradient id="paint27_linear" x1="461.951" y1="37.8882" x2="469.386" y2="50.7899" gradientUnits="userSpaceOnUse"> <stop stop-color="#FFA71C"></stop> <stop offset="1" stop-color="#FFA71C" stop-opacity="0"></stop> </linearGradient> <linearGradient id="paint28_linear" x1="751.474" y1="87.5686" x2="751.381" y2="92.9761" gradientUnits="userSpaceOnUse"> <stop stop-color="#FFA71C"></stop> <stop offset="1" stop-color="#FFA71C" stop-opacity="0"></stop> </linearGradient> <linearGradient id="paint29_linear" x1="525.97" y1="120.063" x2="525.877" y2="125.471" gradientUnits="userSpaceOnUse"> <stop stop-color="#FFA71C"></stop> <stop offset="1" stop-color="#FFA71C" stop-opacity="0"></stop> </linearGradient> <linearGradient id="paint30_linear" x1="889.632" y1="162.316" x2="894.904" y2="174.514" gradientUnits="userSpaceOnUse"> <stop stop-color="#FFA71C"></stop> <stop offset="1" stop-color="#FFA71C" stop-opacity="0"></stop> </linearGradient> <linearGradient id="paint31_linear" x1="901.879" y1="76.5312" x2="906.764" y2="80.9223" gradientUnits="userSpaceOnUse"> <stop stop-color="#FFA71C"></stop> <stop offset="1" stop-color="#FFA71C" stop-opacity="0"></stop> </linearGradient> <linearGradient id="paint32_linear" x1="1020.07" y1="101.67" x2="1026.19" y2="112.766" gradientUnits="userSpaceOnUse"> <stop stop-color="#FFA71C"></stop> <stop offset="1" stop-color="#FFA71C" stop-opacity="0"></stop> </linearGradient> <linearGradient id="paint33_linear" x1="936.005" y1="197.063" x2="935.912" y2="202.471" gradientUnits="userSpaceOnUse"> <stop stop-color="#FFA71C"></stop> <stop offset="1" stop-color="#FFA71C" stop-opacity="0"></stop> </linearGradient> <linearGradient id="paint34_linear" x1="832.975" y1="180.681" x2="841.998" y2="201.559" gradientUnits="userSpaceOnUse"> <stop stop-color="#FFA71C"></stop> <stop offset="1" stop-color="#FFA71C" stop-opacity="0"></stop> </linearGradient> <linearGradient id="paint35_linear" x1="833.029" y1="268.171" x2="842.053" y2="289.049" gradientUnits="userSpaceOnUse"> <stop stop-color="#FFA71C"></stop> <stop offset="1" stop-color="#FFA71C" stop-opacity="0"></stop> </linearGradient> <linearGradient id="paint36_linear" x1="550.03" y1="342.171" x2="559.053" y2="363.049" gradientUnits="userSpaceOnUse"> <stop stop-color="#FFA71C"></stop> <stop offset="1" stop-color="#FFA71C" stop-opacity="0"></stop> </linearGradient> <linearGradient id="paint37_linear" x1="347.632" y1="702.316" x2="352.904" y2="714.514" gradientUnits="userSpaceOnUse"> <stop stop-color="#FFA71C"></stop> <stop offset="1" stop-color="#FFA71C" stop-opacity="0"></stop> </linearGradient> <linearGradient id="paint38_linear" x1="378.242" y1="708.142" x2="383.127" y2="712.533" gradientUnits="userSpaceOnUse"> <stop stop-color="#FFA71C"></stop> <stop offset="1" stop-color="#FFA71C" stop-opacity="0"></stop> </linearGradient> <linearGradient id="paint39_linear" x1="408.069" y1="681.67" x2="414.193" y2="692.766" gradientUnits="userSpaceOnUse"> <stop stop-color="#FFA71C"></stop> <stop offset="1" stop-color="#FFA71C" stop-opacity="0"></stop> </linearGradient> <linearGradient id="paint40_linear" x1="500.407" y1="690.753" x2="513.677" y2="708.388" gradientUnits="userSpaceOnUse"> <stop stop-color="#FFA71C"></stop> <stop offset="1" stop-color="#FFA71C" stop-opacity="0"></stop> </linearGradient> <linearGradient id="paint41_linear" x1="788.278" y1="785.142" x2="793.162" y2="789.533" gradientUnits="userSpaceOnUse"> <stop stop-color="#FFA71C"></stop> <stop offset="1" stop-color="#FFA71C" stop-opacity="0"></stop> </linearGradient> <linearGradient id="paint42_linear" x1="701.01" y1="797.681" x2="710.033" y2="818.559" gradientUnits="userSpaceOnUse"> <stop stop-color="#FFA71C"></stop> <stop offset="1" stop-color="#FFA71C" stop-opacity="0"></stop> </linearGradient> <linearGradient id="paint43_linear" x1="723.812" y1="755.578" x2="732.173" y2="763.094" gradientUnits="userSpaceOnUse"> <stop stop-color="#FFA71C"></stop> <stop offset="1" stop-color="#FFA71C" stop-opacity="0"></stop> </linearGradient> <linearGradient id="paint44_linear" x1="774.427" y1="1255.51" x2="779.698" y2="1267.71" gradientUnits="userSpaceOnUse"> <stop stop-color="#FFA71C"></stop> <stop offset="1" stop-color="#FFA71C" stop-opacity="0"></stop> </linearGradient> <linearGradient id="paint45_linear" x1="797.67" y1="1237.75" x2="802.555" y2="1242.14" gradientUnits="userSpaceOnUse"> <stop stop-color="#FFA71C"></stop> <stop offset="1" stop-color="#FFA71C" stop-opacity="0"></stop> </linearGradient> <linearGradient id="paint46_linear" x1="796.078" y1="1195.91" x2="802.203" y2="1207" gradientUnits="userSpaceOnUse"> <stop stop-color="#FFA71C"></stop> <stop offset="1" stop-color="#FFA71C" stop-opacity="0"></stop> </linearGradient> <linearGradient id="paint47_linear" x1="863.824" y1="1126.58" x2="877.093" y2="1144.21" gradientUnits="userSpaceOnUse"> <stop stop-color="#FFA71C"></stop> <stop offset="1" stop-color="#FFA71C" stop-opacity="0"></stop> </linearGradient> <linearGradient id="paint48_linear" x1="1051.24" y1="994.988" x2="1059.6" y2="1002.5" gradientUnits="userSpaceOnUse"> <stop stop-color="#FFA71C"></stop> <stop offset="1" stop-color="#FFA71C" stop-opacity="0"></stop> </linearGradient> <linearGradient id="paint49_linear" x1="824.487" y1="73.0157" x2="834.969" y2="92.0078" gradientUnits="userSpaceOnUse"> <stop stop-color="#FFA71C"></stop> <stop offset="1" stop-color="#FFA71C" stop-opacity="0"></stop> </linearGradient> <linearGradient id="paint50_linear" x1="796.487" y1="102.016" x2="806.969" y2="121.008" gradientUnits="userSpaceOnUse"> <stop stop-color="#FFA71C"></stop> <stop offset="1" stop-color="#FFA71C" stop-opacity="0"></stop> </linearGradient> <linearGradient id="paint51_linear" x1="868.632" y1="394.316" x2="873.904" y2="406.514" gradientUnits="userSpaceOnUse"> <stop stop-color="#FFA71C"></stop> <stop offset="1" stop-color="#FFA71C" stop-opacity="0"></stop> </linearGradient> <linearGradient id="paint52_linear" x1="834.777" y1="370.578" x2="843.137" y2="378.093" gradientUnits="userSpaceOnUse"> <stop stop-color="#FFA71C"></stop> <stop offset="1" stop-color="#FFA71C" stop-opacity="0"></stop> </linearGradient> <linearGradient id="paint53_linear" x1="803.487" y1="305.016" x2="813.969" y2="324.008" gradientUnits="userSpaceOnUse"> <stop stop-color="#FFA71C"></stop> <stop offset="1" stop-color="#FFA71C" stop-opacity="0"></stop> </linearGradient> <linearGradient id="paint54_linear" x1="1022.03" y1="577.171" x2="1031.05" y2="598.049" gradientUnits="userSpaceOnUse"> <stop stop-color="#FFA71C"></stop> <stop offset="1" stop-color="#FFA71C" stop-opacity="0"></stop> </linearGradient> <linearGradient id="paint55_linear" x1="878.487" y1="732.016" x2="888.969" y2="751.008" gradientUnits="userSpaceOnUse"> <stop stop-color="#FFA71C"></stop> <stop offset="1" stop-color="#FFA71C" stop-opacity="0"></stop> </linearGradient> <linearGradient id="paint56_linear" x1="334.487" y1="1137.02" x2="344.969" y2="1156.01" gradientUnits="userSpaceOnUse"> <stop stop-color="#FFA71C"></stop> <stop offset="1" stop-color="#FFA71C" stop-opacity="0"></stop> </linearGradient> <linearGradient id="paint57_linear" x1="910.531" y1="126.338" x2="910.372" y2="135.594" gradientUnits="userSpaceOnUse"> <stop stop-color="#FFA71C"></stop> <stop offset="1" stop-color="#FFA71C" stop-opacity="0"></stop> </linearGradient> <linearGradient id="paint58_linear" x1="964.457" y1="34.4813" x2="964.298" y2="43.737" gradientUnits="userSpaceOnUse"> <stop stop-color="#FFA71C"></stop> <stop offset="1" stop-color="#FFA71C" stop-opacity="0"></stop> </linearGradient> <linearGradient id="paint59_linear" x1="636.487" y1="268.159" x2="646.969" y2="287.151" gradientUnits="userSpaceOnUse"> <stop stop-color="#FFA71C"></stop> <stop offset="1" stop-color="#FFA71C" stop-opacity="0"></stop> </linearGradient> <linearGradient id="paint60_linear" x1="743.531" y1="89.4813" x2="743.372" y2="98.737" gradientUnits="userSpaceOnUse"> <stop stop-color="#FFA71C"></stop> <stop offset="1" stop-color="#FFA71C" stop-opacity="0"></stop> </linearGradient> <linearGradient id="paint61_linear" x1="390.24" y1="200.347" x2="389.808" y2="212.017" gradientUnits="userSpaceOnUse"> <stop stop-color="#FFA71C"></stop> <stop offset="1" stop-color="#FFA71C" stop-opacity="0"></stop> </linearGradient> <linearGradient id="paint62_linear" x1="104.24" y1="239.347" x2="103.808" y2="251.017" gradientUnits="userSpaceOnUse"> <stop stop-color="#FFA71C"></stop> <stop offset="1" stop-color="#FFA71C" stop-opacity="0"></stop> </linearGradient> </defs> </svg> 