<?xml version="1.0" encoding="UTF-8"?> <svg xmlns="http://www.w3.org/2000/svg" width="1906" height="1896" viewBox="0 0 1906 1896" fill="none"> <rect opacity="0.4" x="78.0039" y="40.5" width="1797" height="520.5" fill="url(#paint0_radial)"></rect> <path opacity="0.7" d="M66.75 40.5L49.5 30H1905L1879.5 40.5H66.75Z" fill="url(#paint1_linear)"></path> <path opacity="0.1" d="M1889.99 564.001L1899 574.501L53.9988 574.501L61.505 564.001L1889.99 564.001Z" fill="url(#paint2_linear)"></path> <path fill-rule="evenodd" clip-rule="evenodd" d="M1257.6 74.9997L1281 15H676.43L699.835 74.9997H1257.6Z" fill="#06011B"></path> <path opacity="0.7" fill-rule="evenodd" clip-rule="evenodd" d="M1257.6 74.9997L1281 15H676.43L699.835 74.9997H1257.6Z" fill="url(#paint3_linear)"></path> <path fill-rule="evenodd" clip-rule="evenodd" d="M814.5 0V0.00185268L828.608 96.0001H1125.89L1140 0H814.5Z" fill="url(#paint4_linear)"></path> <ellipse cx="580.5" cy="152.25" rx="15" ry="11.25" transform="rotate(-26.1932 580.5 152.25)" fill="url(#paint5_linear)" fill-opacity="0.6"></ellipse> <ellipse cx="195.428" cy="141.215" rx="15" ry="11.25" transform="rotate(-84 195.428 141.215)" fill="url(#paint6_linear)" fill-opacity="0.6"></ellipse> <ellipse opacity="0.2" cx="651.601" cy="101.721" rx="7.36765" ry="5.52574" transform="rotate(-26.1932 651.601 101.721)" fill="url(#paint7_linear)" fill-opacity="0.6"></ellipse> <ellipse opacity="0.2" cx="724.55" cy="132.71" rx="7.36765" ry="5.52574" transform="rotate(-108.784 724.55 132.71)" fill="url(#paint8_linear)" fill-opacity="0.6"></ellipse> <ellipse cx="367.925" cy="553.295" rx="15" ry="11.25" transform="rotate(-26.1932 367.925 553.295)" fill="url(#paint9_linear)" fill-opacity="0.6"></ellipse> <ellipse opacity="0.2" cx="511.98" cy="533.754" rx="7.36765" ry="5.52574" transform="rotate(-108.784 511.98 533.754)" fill="url(#paint10_linear)" fill-opacity="0.6"></ellipse> <ellipse opacity="0.2" cx="766.671" cy="138.963" rx="1.94277" ry="3.75" transform="rotate(-108.784 766.671 138.963)" fill="url(#paint11_linear)" fill-opacity="0.6"></ellipse> <ellipse opacity="0.2" cx="7.60517" cy="542.755" rx="7.36765" ry="5.52574" transform="rotate(-108.784 7.60517 542.755)" fill="url(#paint12_linear)" fill-opacity="0.6"></ellipse> <ellipse opacity="0.2" cx="49.7255" cy="549.007" rx="1.94277" ry="3.75" transform="rotate(-108.784 49.7255 549.007)" fill="url(#paint13_linear)" fill-opacity="0.6"></ellipse> <ellipse opacity="0.2" cx="1003.61" cy="667.255" rx="7.36765" ry="5.52574" transform="rotate(-108.784 1003.61 667.255)" fill="url(#paint14_linear)" fill-opacity="0.6"></ellipse> <ellipse opacity="0.2" cx="1045.72" cy="673.506" rx="1.94277" ry="3.75" transform="rotate(-108.784 1045.72 673.506)" fill="url(#paint15_linear)" fill-opacity="0.6"></ellipse> <ellipse cx="814.089" cy="101.742" rx="5.76934" ry="5.52574" transform="rotate(-108.784 814.089 101.742)" fill="url(#paint16_linear)" fill-opacity="0.6"></ellipse> <ellipse opacity="0.5" cx="954.21" cy="122.389" rx="8.07402" ry="10.5429" transform="rotate(-108.784 954.21 122.389)" fill="url(#paint17_linear)" fill-opacity="0.6"></ellipse> <g opacity="0.5"> <ellipse cx="1017.5" cy="200.645" rx="16.5" ry="16.4992" transform="rotate(-108.784 1017.5 200.645)" fill="url(#paint18_linear)" fill-opacity="0.22"></ellipse> <ellipse cx="1017.5" cy="200.645" rx="16.5" ry="16.4992" transform="rotate(-108.784 1017.5 200.645)" fill="url(#paint19_linear)" fill-opacity="0.22"></ellipse> </g> <g opacity="0.5"> <ellipse cx="1059.82" cy="131.324" rx="6.56035" ry="6.56003" transform="rotate(-108.784 1059.82 131.324)" fill="url(#paint20_linear)" fill-opacity="0.22"></ellipse> <ellipse cx="1059.82" cy="131.324" rx="6.56035" ry="6.56003" transform="rotate(-108.784 1059.82 131.324)" fill="url(#paint21_linear)" fill-opacity="0.22"></ellipse> </g> <ellipse cx="1020.71" cy="417.619" rx="15" ry="11.25" transform="rotate(-156.039 1020.71 417.619)" fill="url(#paint22_linear)" fill-opacity="0.6"></ellipse> <ellipse opacity="0.2" cx="936.351" cy="395.403" rx="7.36765" ry="5.52574" transform="rotate(-156.039 936.351 395.403)" fill="url(#paint23_linear)" fill-opacity="0.6"></ellipse> <ellipse opacity="0.2" cx="913.404" cy="319.537" rx="7.36765" ry="5.52574" transform="rotate(121.37 913.404 319.537)" fill="url(#paint24_linear)" fill-opacity="0.6"></ellipse> <ellipse opacity="0.2" cx="891.22" cy="283.195" rx="1.94277" ry="3.75" transform="rotate(121.37 891.22 283.195)" fill="url(#paint25_linear)" fill-opacity="0.6"></ellipse> <g opacity="0.5"> <ellipse cx="697.519" cy="63.0156" rx="6.56035" ry="6.56003" transform="rotate(121.37 697.519 63.0156)" fill="url(#paint26_linear)" fill-opacity="0.22"></ellipse> <ellipse cx="697.519" cy="63.0156" rx="6.56035" ry="6.56003" transform="rotate(121.37 697.519 63.0156)" fill="url(#paint27_linear)" fill-opacity="0.22"></ellipse> </g> <ellipse opacity="0.5" cx="1127.32" cy="132.823" rx="6.56035" ry="6.56003" transform="rotate(-57.2878 1127.32 132.823)" fill="url(#paint28_linear)" fill-opacity="0.22"></ellipse> <ellipse opacity="0.5" cx="789.065" cy="181.564" rx="6.56035" ry="6.56003" transform="rotate(-57.2878 789.065 181.564)" fill="url(#paint29_linear)" fill-opacity="0.22"></ellipse> <ellipse opacity="0.2" cx="1339.61" cy="248.21" rx="7.36765" ry="5.52574" transform="rotate(-108.784 1339.61 248.21)" fill="url(#paint30_linear)" fill-opacity="0.6"></ellipse> <ellipse opacity="0.2" cx="1354.18" cy="117.047" rx="1.94277" ry="3.75" transform="rotate(-108.784 1354.18 117.047)" fill="url(#paint31_linear)" fill-opacity="0.6"></ellipse> <ellipse cx="1534.14" cy="157.242" rx="5.76934" ry="5.52574" transform="rotate(-108.784 1534.14 157.242)" fill="url(#paint32_linear)" fill-opacity="0.6"></ellipse> <ellipse opacity="0.5" cx="1404.12" cy="297.064" rx="6.56035" ry="6.56003" transform="rotate(-57.2878 1404.12 297.064)" fill="url(#paint33_linear)" fill-opacity="0.22"></ellipse> <ellipse opacity="0.2" cx="1258.29" cy="281.264" rx="12.6107" ry="9.45802" transform="rotate(175.114 1258.29 281.264)" fill="url(#paint34_linear)" fill-opacity="0.6"></ellipse> <ellipse opacity="0.2" cx="1258.37" cy="412.497" rx="12.6107" ry="9.45802" transform="rotate(175.114 1258.37 412.497)" fill="url(#paint35_linear)" fill-opacity="0.6"></ellipse> <ellipse opacity="0.2" cx="833.872" cy="523.497" rx="12.6107" ry="9.45802" transform="rotate(175.114 833.872 523.497)" fill="url(#paint36_linear)" fill-opacity="0.6"></ellipse> <ellipse opacity="0.2" cx="526.605" cy="1058.21" rx="7.36765" ry="5.52574" transform="rotate(-108.784 526.605 1058.21)" fill="url(#paint37_linear)" fill-opacity="0.6"></ellipse> <ellipse opacity="0.2" cx="568.722" cy="1064.46" rx="1.94277" ry="3.75" transform="rotate(-108.784 568.722 1064.46)" fill="url(#paint38_linear)" fill-opacity="0.6"></ellipse> <ellipse cx="616.143" cy="1027.24" rx="5.76934" ry="5.52574" transform="rotate(-108.784 616.143 1027.24)" fill="url(#paint39_linear)" fill-opacity="0.6"></ellipse> <ellipse opacity="0.5" cx="756.264" cy="1047.89" rx="8.07402" ry="10.5429" transform="rotate(-108.784 756.264 1047.89)" fill="url(#paint40_linear)" fill-opacity="0.6"></ellipse> <ellipse opacity="0.2" cx="1183.78" cy="1179.96" rx="1.94277" ry="3.75" transform="rotate(-108.784 1183.78 1179.96)" fill="url(#paint41_linear)" fill-opacity="0.6"></ellipse> <ellipse opacity="0.2" cx="1060.34" cy="1206.76" rx="12.6107" ry="9.45802" transform="rotate(175.114 1060.34 1206.76)" fill="url(#paint42_linear)" fill-opacity="0.6"></ellipse> <ellipse opacity="0.2" cx="1088.05" cy="1139.35" rx="3.32531" ry="6.41862" transform="rotate(175.114 1088.05 1139.35)" fill="url(#paint43_linear)" fill-opacity="0.6"></ellipse> <ellipse opacity="0.2" cx="1166.8" cy="1888" rx="7.36765" ry="5.52574" transform="rotate(-160.374 1166.8 1888)" fill="url(#paint44_linear)" fill-opacity="0.6"></ellipse> <ellipse opacity="0.2" cx="1197.87" cy="1858.88" rx="1.94277" ry="3.75" transform="rotate(-160.374 1197.87 1858.88)" fill="url(#paint45_linear)" fill-opacity="0.6"></ellipse> <ellipse cx="1198.16" cy="1798.6" rx="5.76934" ry="5.52574" transform="rotate(-160.374 1198.16 1798.6)" fill="url(#paint46_linear)" fill-opacity="0.6"></ellipse> <ellipse opacity="0.5" cx="1301.39" cy="1701.63" rx="8.07402" ry="10.5429" transform="rotate(-160.374 1301.39 1701.63)" fill="url(#paint47_linear)" fill-opacity="0.6"></ellipse> <ellipse opacity="0.2" cx="1579.18" cy="1498.47" rx="3.32531" ry="6.41862" transform="rotate(123.523 1579.18 1498.47)" fill="url(#paint48_linear)" fill-opacity="0.6"></ellipse> <ellipse cx="1243.64" cy="119.764" rx="9.87498" ry="9.45802" transform="rotate(175.114 1243.64 119.764)" fill="url(#paint49_linear)" fill-opacity="0.6"></ellipse> <ellipse cx="1201.64" cy="163.264" rx="9.87498" ry="9.45802" transform="rotate(175.114 1201.64 163.264)" fill="url(#paint50_linear)" fill-opacity="0.6"></ellipse> <ellipse opacity="0.2" cx="1308.11" cy="596.211" rx="7.36765" ry="5.52574" transform="rotate(-108.784 1308.11 596.211)" fill="url(#paint51_linear)" fill-opacity="0.6"></ellipse> <ellipse opacity="0.2" cx="1254.5" cy="561.852" rx="3.32531" ry="6.41862" transform="rotate(175.114 1254.5 561.852)" fill="url(#paint52_linear)" fill-opacity="0.6"></ellipse> <ellipse cx="1212.14" cy="467.764" rx="9.87498" ry="9.45802" transform="rotate(175.114 1212.14 467.764)" fill="url(#paint53_linear)" fill-opacity="0.6"></ellipse> <ellipse opacity="0.2" cx="1541.87" cy="875.997" rx="12.6107" ry="9.45802" transform="rotate(175.114 1541.87 875.997)" fill="url(#paint54_linear)" fill-opacity="0.6"></ellipse> <ellipse cx="1324.64" cy="1108.27" rx="9.87498" ry="9.45802" transform="rotate(175.114 1324.64 1108.27)" fill="url(#paint55_linear)" fill-opacity="0.6"></ellipse> <ellipse cx="508.64" cy="1715.77" rx="9.87498" ry="9.45802" transform="rotate(175.114 508.64 1715.77)" fill="url(#paint56_linear)" fill-opacity="0.6"></ellipse> <ellipse opacity="0.5" cx="1365.99" cy="194.159" rx="11.2289" ry="11.2283" transform="rotate(-133.39 1365.99 194.159)" fill="url(#paint57_linear)" fill-opacity="0.22"></ellipse> <ellipse opacity="0.5" cx="1446.88" cy="56.3727" rx="11.2289" ry="11.2283" transform="rotate(-133.39 1446.88 56.3727)" fill="url(#paint58_linear)" fill-opacity="0.22"></ellipse> <ellipse cx="961.64" cy="412.48" rx="9.87498" ry="9.45802" transform="rotate(175.114 961.64 412.48)" fill="url(#paint59_linear)" fill-opacity="0.6"></ellipse> <ellipse opacity="0.5" cx="1115.48" cy="138.873" rx="11.2289" ry="11.2283" transform="rotate(-133.39 1115.48 138.873)" fill="url(#paint60_linear)" fill-opacity="0.22"></ellipse> <ellipse cx="585.474" cy="307.178" rx="6.56035" ry="14.1725" transform="rotate(-57.2878 585.474 307.178)" fill="url(#paint61_linear)" fill-opacity="0.5"></ellipse> <ellipse cx="156.47" cy="365.679" rx="6.56035" ry="14.1725" transform="rotate(-57.2878 156.47 365.679)" fill="url(#paint62_linear)" fill-opacity="0.5"></ellipse> <defs> <radialGradient id="paint0_radial" cx="0" cy="0" r="1" gradientUnits="userSpaceOnUse" gradientTransform="translate(976.505 -61.7663) rotate(-90) scale(539.543 866.775)"> <stop stop-color="#FFBD4A" stop-opacity="0.6"></stop> <stop offset="1" stop-color="#FFBD4A" stop-opacity="0"></stop> </radialGradient> <linearGradient id="paint1_linear" x1="49.5" y1="35.2476" x2="1905" y2="30.7499" gradientUnits="userSpaceOnUse"> <stop stop-color="#FFBD4A" stop-opacity="0.2"></stop> <stop offset="0.505208" stop-color="#FFBD4A"></stop> <stop offset="1" stop-color="#FFBD4A" stop-opacity="0.2"></stop> </linearGradient> <linearGradient id="paint2_linear" x1="1899" y1="569.253" x2="53.9988" y2="573.7" gradientUnits="userSpaceOnUse"> <stop stop-color="#FFBD4A" stop-opacity="0.2"></stop> <stop offset="0.505208" stop-color="#FFBD4A"></stop> <stop offset="1" stop-color="#FFBD4A" stop-opacity="0.2"></stop> </linearGradient> <linearGradient id="paint3_linear" x1="676.43" y1="44.9998" x2="1281" y2="44.9999" gradientUnits="userSpaceOnUse"> <stop stop-color="#FF9900"></stop> <stop offset="0.520833" stop-color="#FFBD4A"></stop> <stop offset="1" stop-color="#FF9900"></stop> </linearGradient> <linearGradient id="paint4_linear" x1="814.5" y1="48" x2="1140" y2="48" gradientUnits="userSpaceOnUse"> <stop stop-color="#FF9900"></stop> <stop offset="0.520833" stop-color="#FFBD4A"></stop> <stop offset="1" stop-color="#FF9900"></stop> </linearGradient> <linearGradient id="paint5_linear" x1="570" y1="136.5" x2="586.099" y2="173.75" gradientUnits="userSpaceOnUse"> <stop stop-color="#FFA71C"></stop> <stop offset="1" stop-color="#FFA71C" stop-opacity="0"></stop> </linearGradient> <linearGradient id="paint6_linear" x1="184.928" y1="125.465" x2="201.028" y2="162.715" gradientUnits="userSpaceOnUse"> <stop stop-color="#FFA71C"></stop> <stop offset="1" stop-color="#FFA71C" stop-opacity="0"></stop> </linearGradient> <linearGradient id="paint7_linear" x1="646.443" y1="93.9848" x2="654.351" y2="112.281" gradientUnits="userSpaceOnUse"> <stop stop-color="#FFA71C"></stop> <stop offset="1" stop-color="#FFA71C" stop-opacity="0"></stop> </linearGradient> <linearGradient id="paint8_linear" x1="719.393" y1="124.974" x2="727.301" y2="143.271" gradientUnits="userSpaceOnUse"> <stop stop-color="#FFA71C"></stop> <stop offset="1" stop-color="#FFA71C" stop-opacity="0"></stop> </linearGradient> <linearGradient id="paint9_linear" x1="357.425" y1="537.545" x2="373.525" y2="574.795" gradientUnits="userSpaceOnUse"> <stop stop-color="#FFA71C"></stop> <stop offset="1" stop-color="#FFA71C" stop-opacity="0"></stop> </linearGradient> <linearGradient id="paint10_linear" x1="506.823" y1="526.018" x2="514.731" y2="544.315" gradientUnits="userSpaceOnUse"> <stop stop-color="#FFA71C"></stop> <stop offset="1" stop-color="#FFA71C" stop-opacity="0"></stop> </linearGradient> <linearGradient id="paint11_linear" x1="765.311" y1="133.713" x2="772.637" y2="140.3" gradientUnits="userSpaceOnUse"> <stop stop-color="#FFA71C"></stop> <stop offset="1" stop-color="#FFA71C" stop-opacity="0"></stop> </linearGradient> <linearGradient id="paint12_linear" x1="2.44782" y1="535.019" x2="10.3556" y2="553.316" gradientUnits="userSpaceOnUse"> <stop stop-color="#FFA71C"></stop> <stop offset="1" stop-color="#FFA71C" stop-opacity="0"></stop> </linearGradient> <linearGradient id="paint13_linear" x1="48.3656" y1="543.757" x2="55.6921" y2="550.344" gradientUnits="userSpaceOnUse"> <stop stop-color="#FFA71C"></stop> <stop offset="1" stop-color="#FFA71C" stop-opacity="0"></stop> </linearGradient> <linearGradient id="paint14_linear" x1="998.448" y1="659.519" x2="1006.36" y2="677.816" gradientUnits="userSpaceOnUse"> <stop stop-color="#FFA71C"></stop> <stop offset="1" stop-color="#FFA71C" stop-opacity="0"></stop> </linearGradient> <linearGradient id="paint15_linear" x1="1044.36" y1="668.256" x2="1051.69" y2="674.843" gradientUnits="userSpaceOnUse"> <stop stop-color="#FFA71C"></stop> <stop offset="1" stop-color="#FFA71C" stop-opacity="0"></stop> </linearGradient> <linearGradient id="paint16_linear" x1="810.05" y1="94.006" x2="819.236" y2="110.65" gradientUnits="userSpaceOnUse"> <stop stop-color="#FFA71C"></stop> <stop offset="1" stop-color="#FFA71C" stop-opacity="0"></stop> </linearGradient> <linearGradient id="paint17_linear" x1="948.558" y1="107.629" x2="968.462" y2="134.081" gradientUnits="userSpaceOnUse"> <stop stop-color="#FFA71C"></stop> <stop offset="1" stop-color="#FFA71C" stop-opacity="0"></stop> </linearGradient> <linearGradient id="paint18_linear" x1="1005.95" y1="177.546" x2="1034" y2="226.22" gradientUnits="userSpaceOnUse"> <stop stop-color="#FFA71C"></stop> <stop offset="1" stop-color="#FFA71C" stop-opacity="0"></stop> </linearGradient> <linearGradient id="paint19_linear" x1="1005.95" y1="177.546" x2="1034" y2="226.22" gradientUnits="userSpaceOnUse"> <stop stop-color="#FFA71C"></stop> <stop offset="1" stop-color="#FFA71C" stop-opacity="0"></stop> </linearGradient> <linearGradient id="paint20_linear" x1="1055.23" y1="122.14" x2="1066.38" y2="141.493" gradientUnits="userSpaceOnUse"> <stop stop-color="#FFA71C"></stop> <stop offset="1" stop-color="#FFA71C" stop-opacity="0"></stop> </linearGradient> <linearGradient id="paint21_linear" x1="1055.23" y1="122.14" x2="1066.38" y2="141.493" gradientUnits="userSpaceOnUse"> <stop stop-color="#FFA71C"></stop> <stop offset="1" stop-color="#FFA71C" stop-opacity="0"></stop> </linearGradient> <linearGradient id="paint22_linear" x1="1010.21" y1="401.869" x2="1026.31" y2="439.119" gradientUnits="userSpaceOnUse"> <stop stop-color="#FFA71C"></stop> <stop offset="1" stop-color="#FFA71C" stop-opacity="0"></stop> </linearGradient> <linearGradient id="paint23_linear" x1="931.194" y1="387.667" x2="939.102" y2="405.963" gradientUnits="userSpaceOnUse"> <stop stop-color="#FFA71C"></stop> <stop offset="1" stop-color="#FFA71C" stop-opacity="0"></stop> </linearGradient> <linearGradient id="paint24_linear" x1="908.246" y1="311.801" x2="916.154" y2="330.098" gradientUnits="userSpaceOnUse"> <stop stop-color="#FFA71C"></stop> <stop offset="1" stop-color="#FFA71C" stop-opacity="0"></stop> </linearGradient> <linearGradient id="paint25_linear" x1="889.86" y1="277.945" x2="897.187" y2="284.532" gradientUnits="userSpaceOnUse"> <stop stop-color="#FFA71C"></stop> <stop offset="1" stop-color="#FFA71C" stop-opacity="0"></stop> </linearGradient> <linearGradient id="paint26_linear" x1="692.927" y1="53.8315" x2="704.078" y2="73.1841" gradientUnits="userSpaceOnUse"> <stop stop-color="#FFA71C"></stop> <stop offset="1" stop-color="#FFA71C" stop-opacity="0"></stop> </linearGradient> <linearGradient id="paint27_linear" x1="692.927" y1="53.8315" x2="704.078" y2="73.1841" gradientUnits="userSpaceOnUse"> <stop stop-color="#FFA71C"></stop> <stop offset="1" stop-color="#FFA71C" stop-opacity="0"></stop> </linearGradient> <linearGradient id="paint28_linear" x1="1127.21" y1="128.353" x2="1127.07" y2="136.464" gradientUnits="userSpaceOnUse"> <stop stop-color="#FFA71C"></stop> <stop offset="1" stop-color="#FFA71C" stop-opacity="0"></stop> </linearGradient> <linearGradient id="paint29_linear" x1="788.955" y1="177.094" x2="788.816" y2="185.205" gradientUnits="userSpaceOnUse"> <stop stop-color="#FFA71C"></stop> <stop offset="1" stop-color="#FFA71C" stop-opacity="0"></stop> </linearGradient> <linearGradient id="paint30_linear" x1="1334.45" y1="240.474" x2="1342.36" y2="258.771" gradientUnits="userSpaceOnUse"> <stop stop-color="#FFA71C"></stop> <stop offset="1" stop-color="#FFA71C" stop-opacity="0"></stop> </linearGradient> <linearGradient id="paint31_linear" x1="1352.82" y1="111.797" x2="1360.15" y2="118.384" gradientUnits="userSpaceOnUse"> <stop stop-color="#FFA71C"></stop> <stop offset="1" stop-color="#FFA71C" stop-opacity="0"></stop> </linearGradient> <linearGradient id="paint32_linear" x1="1530.1" y1="149.506" x2="1539.29" y2="166.15" gradientUnits="userSpaceOnUse"> <stop stop-color="#FFA71C"></stop> <stop offset="1" stop-color="#FFA71C" stop-opacity="0"></stop> </linearGradient> <linearGradient id="paint33_linear" x1="1404.01" y1="292.594" x2="1403.87" y2="300.705" gradientUnits="userSpaceOnUse"> <stop stop-color="#FFA71C"></stop> <stop offset="1" stop-color="#FFA71C" stop-opacity="0"></stop> </linearGradient> <linearGradient id="paint34_linear" x1="1249.47" y1="268.023" x2="1263" y2="299.339" gradientUnits="userSpaceOnUse"> <stop stop-color="#FFA71C"></stop> <stop offset="1" stop-color="#FFA71C" stop-opacity="0"></stop> </linearGradient> <linearGradient id="paint35_linear" x1="1249.54" y1="399.256" x2="1263.08" y2="430.573" gradientUnits="userSpaceOnUse"> <stop stop-color="#FFA71C"></stop> <stop offset="1" stop-color="#FFA71C" stop-opacity="0"></stop> </linearGradient> <linearGradient id="paint36_linear" x1="825.044" y1="510.256" x2="838.579" y2="541.573" gradientUnits="userSpaceOnUse"> <stop stop-color="#FFA71C"></stop> <stop offset="1" stop-color="#FFA71C" stop-opacity="0"></stop> </linearGradient> <linearGradient id="paint37_linear" x1="521.448" y1="1050.48" x2="529.356" y2="1068.77" gradientUnits="userSpaceOnUse"> <stop stop-color="#FFA71C"></stop> <stop offset="1" stop-color="#FFA71C" stop-opacity="0"></stop> </linearGradient> <linearGradient id="paint38_linear" x1="567.362" y1="1059.21" x2="574.688" y2="1065.8" gradientUnits="userSpaceOnUse"> <stop stop-color="#FFA71C"></stop> <stop offset="1" stop-color="#FFA71C" stop-opacity="0"></stop> </linearGradient> <linearGradient id="paint39_linear" x1="612.105" y1="1019.51" x2="621.291" y2="1036.15" gradientUnits="userSpaceOnUse"> <stop stop-color="#FFA71C"></stop> <stop offset="1" stop-color="#FFA71C" stop-opacity="0"></stop> </linearGradient> <linearGradient id="paint40_linear" x1="750.613" y1="1033.13" x2="770.517" y2="1059.58" gradientUnits="userSpaceOnUse"> <stop stop-color="#FFA71C"></stop> <stop offset="1" stop-color="#FFA71C" stop-opacity="0"></stop> </linearGradient> <linearGradient id="paint41_linear" x1="1182.42" y1="1174.71" x2="1189.74" y2="1181.3" gradientUnits="userSpaceOnUse"> <stop stop-color="#FFA71C"></stop> <stop offset="1" stop-color="#FFA71C" stop-opacity="0"></stop> </linearGradient> <linearGradient id="paint42_linear" x1="1051.51" y1="1193.52" x2="1065.05" y2="1224.84" gradientUnits="userSpaceOnUse"> <stop stop-color="#FFA71C"></stop> <stop offset="1" stop-color="#FFA71C" stop-opacity="0"></stop> </linearGradient> <linearGradient id="paint43_linear" x1="1085.72" y1="1130.37" x2="1098.26" y2="1141.64" gradientUnits="userSpaceOnUse"> <stop stop-color="#FFA71C"></stop> <stop offset="1" stop-color="#FFA71C" stop-opacity="0"></stop> </linearGradient> <linearGradient id="paint44_linear" x1="1161.64" y1="1880.26" x2="1169.55" y2="1898.56" gradientUnits="userSpaceOnUse"> <stop stop-color="#FFA71C"></stop> <stop offset="1" stop-color="#FFA71C" stop-opacity="0"></stop> </linearGradient> <linearGradient id="paint45_linear" x1="1196.51" y1="1853.63" x2="1203.83" y2="1860.22" gradientUnits="userSpaceOnUse"> <stop stop-color="#FFA71C"></stop> <stop offset="1" stop-color="#FFA71C" stop-opacity="0"></stop> </linearGradient> <linearGradient id="paint46_linear" x1="1194.12" y1="1790.86" x2="1203.3" y2="1807.51" gradientUnits="userSpaceOnUse"> <stop stop-color="#FFA71C"></stop> <stop offset="1" stop-color="#FFA71C" stop-opacity="0"></stop> </linearGradient> <linearGradient id="paint47_linear" x1="1295.74" y1="1686.87" x2="1315.64" y2="1713.32" gradientUnits="userSpaceOnUse"> <stop stop-color="#FFA71C"></stop> <stop offset="1" stop-color="#FFA71C" stop-opacity="0"></stop> </linearGradient> <linearGradient id="paint48_linear" x1="1576.86" y1="1489.48" x2="1589.4" y2="1500.76" gradientUnits="userSpaceOnUse"> <stop stop-color="#FFA71C"></stop> <stop offset="1" stop-color="#FFA71C" stop-opacity="0"></stop> </linearGradient> <linearGradient id="paint49_linear" x1="1236.73" y1="106.523" x2="1252.46" y2="135.011" gradientUnits="userSpaceOnUse"> <stop stop-color="#FFA71C"></stop> <stop offset="1" stop-color="#FFA71C" stop-opacity="0"></stop> </linearGradient> <linearGradient id="paint50_linear" x1="1194.73" y1="150.023" x2="1210.46" y2="178.511" gradientUnits="userSpaceOnUse"> <stop stop-color="#FFA71C"></stop> <stop offset="1" stop-color="#FFA71C" stop-opacity="0"></stop> </linearGradient> <linearGradient id="paint51_linear" x1="1302.95" y1="588.475" x2="1310.86" y2="606.772" gradientUnits="userSpaceOnUse"> <stop stop-color="#FFA71C"></stop> <stop offset="1" stop-color="#FFA71C" stop-opacity="0"></stop> </linearGradient> <linearGradient id="paint52_linear" x1="1252.17" y1="552.866" x2="1264.71" y2="564.14" gradientUnits="userSpaceOnUse"> <stop stop-color="#FFA71C"></stop> <stop offset="1" stop-color="#FFA71C" stop-opacity="0"></stop> </linearGradient> <linearGradient id="paint53_linear" x1="1205.23" y1="454.523" x2="1220.96" y2="483.011" gradientUnits="userSpaceOnUse"> <stop stop-color="#FFA71C"></stop> <stop offset="1" stop-color="#FFA71C" stop-opacity="0"></stop> </linearGradient> <linearGradient id="paint54_linear" x1="1533.04" y1="862.756" x2="1546.58" y2="894.073" gradientUnits="userSpaceOnUse"> <stop stop-color="#FFA71C"></stop> <stop offset="1" stop-color="#FFA71C" stop-opacity="0"></stop> </linearGradient> <linearGradient id="paint55_linear" x1="1317.73" y1="1095.02" x2="1333.46" y2="1123.51" gradientUnits="userSpaceOnUse"> <stop stop-color="#FFA71C"></stop> <stop offset="1" stop-color="#FFA71C" stop-opacity="0"></stop> </linearGradient> <linearGradient id="paint56_linear" x1="501.728" y1="1702.52" x2="517.452" y2="1731.01" gradientUnits="userSpaceOnUse"> <stop stop-color="#FFA71C"></stop> <stop offset="1" stop-color="#FFA71C" stop-opacity="0"></stop> </linearGradient> <linearGradient id="paint57_linear" x1="1365.8" y1="186.507" x2="1365.56" y2="200.391" gradientUnits="userSpaceOnUse"> <stop stop-color="#FFA71C"></stop> <stop offset="1" stop-color="#FFA71C" stop-opacity="0"></stop> </linearGradient> <linearGradient id="paint58_linear" x1="1446.69" y1="48.7212" x2="1446.45" y2="62.6048" gradientUnits="userSpaceOnUse"> <stop stop-color="#FFA71C"></stop> <stop offset="1" stop-color="#FFA71C" stop-opacity="0"></stop> </linearGradient> <linearGradient id="paint59_linear" x1="954.728" y1="399.239" x2="970.452" y2="427.727" gradientUnits="userSpaceOnUse"> <stop stop-color="#FFA71C"></stop> <stop offset="1" stop-color="#FFA71C" stop-opacity="0"></stop> </linearGradient> <linearGradient id="paint60_linear" x1="1115.3" y1="131.221" x2="1115.06" y2="145.105" gradientUnits="userSpaceOnUse"> <stop stop-color="#FFA71C"></stop> <stop offset="1" stop-color="#FFA71C" stop-opacity="0"></stop> </linearGradient> <linearGradient id="paint61_linear" x1="585.364" y1="297.521" x2="584.717" y2="315.026" gradientUnits="userSpaceOnUse"> <stop stop-color="#FFA71C"></stop> <stop offset="1" stop-color="#FFA71C" stop-opacity="0"></stop> </linearGradient> <linearGradient id="paint62_linear" x1="156.36" y1="356.022" x2="155.713" y2="373.527" gradientUnits="userSpaceOnUse"> <stop stop-color="#FFA71C"></stop> <stop offset="1" stop-color="#FFA71C" stop-opacity="0"></stop> </linearGradient> </defs> </svg> 