<?xml version="1.0" encoding="UTF-8"?> <svg xmlns="http://www.w3.org/2000/svg" width="247" height="32" viewBox="0 0 247 32" fill="none"> <path d="M51.3808 9.59166V20.9716H54.7403C56.4596 20.9716 57.6583 20.1239 58.3365 18.4283C58.7072 17.4977 58.8925 16.3897 58.8925 15.1042C58.8925 13.3298 58.6125 11.9694 58.0526 11.023C57.5006 10.0688 56.3965 9.59166 54.7403 9.59166H51.3808ZM55.3555 6.56331C56.4359 6.57908 57.3349 6.70526 58.0526 6.94185C59.275 7.34405 60.2647 8.08143 61.0218 9.15397C61.6291 10.0215 62.0431 10.9599 62.2639 11.9694C62.4847 12.9788 62.5951 13.941 62.5951 14.8558C62.5951 17.1744 62.1298 19.1381 61.1992 20.7469C59.9374 22.9156 57.9895 24 55.3555 24H47.8438V6.56331H55.3555Z" fill="white"></path> <path d="M71.5908 21.6223C72.5765 21.6223 73.3336 21.2713 73.862 20.5694C74.3904 19.8675 74.6546 18.8699 74.6546 17.5766C74.6546 16.2832 74.3904 15.2895 73.862 14.5955C73.3336 13.8937 72.5765 13.5427 71.5908 13.5427C70.605 13.5427 69.8439 13.8937 69.3077 14.5955C68.7793 15.2895 68.5151 16.2832 68.5151 17.5766C68.5151 18.8699 68.7793 19.8675 69.3077 20.5694C69.8439 21.2713 70.605 21.6223 71.5908 21.6223ZM78.1916 17.5766C78.1916 19.4693 77.6475 21.0899 76.5591 22.4385C75.4708 23.7792 73.8186 24.4495 71.6026 24.4495C69.3865 24.4495 67.7343 23.7792 66.646 22.4385C65.5577 21.0899 65.0136 19.4693 65.0136 17.5766C65.0136 15.7154 65.5577 14.1026 66.646 12.7383C67.7343 11.374 69.3865 10.6918 71.6026 10.6918C73.8186 10.6918 75.4708 11.374 76.5591 12.7383C77.6475 14.1026 78.1916 15.7154 78.1916 17.5766Z" fill="white"></path> <path d="M80.0186 13.6255V11.2241H81.8166V7.62796H85.1526V11.2241H87.2464V13.6255H85.1526V20.4393C85.1526 20.9677 85.2196 21.2989 85.3537 21.433C85.4877 21.5592 85.8978 21.6223 86.5839 21.6223C86.6864 21.6223 86.7929 21.6223 86.9033 21.6223C87.0216 21.6144 87.136 21.6065 87.2464 21.5986V24.1183L85.6494 24.1774C84.0564 24.2326 82.968 23.9566 82.3845 23.3494C82.0059 22.9629 81.8166 22.3675 81.8166 21.5631V13.6255H80.0186Z" fill="white"></path> <path d="M97.2475 17.7303C97.0346 17.8644 96.8177 17.9748 96.5969 18.0616C96.384 18.1404 96.0882 18.2154 95.7097 18.2863L94.9526 18.4283C94.2428 18.5545 93.7341 18.7083 93.4266 18.8896C92.9061 19.1972 92.6458 19.6743 92.6458 20.321C92.6458 20.8967 92.8036 21.3147 93.119 21.5749C93.4424 21.8273 93.8327 21.9535 94.2901 21.9535C95.0157 21.9535 95.6821 21.7405 96.2893 21.3147C96.9044 20.8888 97.2238 20.112 97.2475 18.9843V17.7303ZM95.201 16.157C95.824 16.0782 96.2696 15.9796 96.5377 15.8613C97.0188 15.6562 97.2593 15.3368 97.2593 14.9031C97.2593 14.3747 97.074 14.0119 96.7033 13.8148C96.3406 13.6097 95.8043 13.5072 95.0945 13.5072C94.298 13.5072 93.7341 13.7044 93.4029 14.0987C93.1663 14.3905 93.0086 14.7848 92.9297 15.2816H89.6766C89.7476 14.1539 90.0631 13.2273 90.623 12.5017C91.5141 11.3661 93.0441 10.7983 95.2128 10.7983C96.6245 10.7983 97.8784 11.0782 98.9746 11.6382C100.071 12.1981 100.619 13.2549 100.619 14.8085V20.7232C100.619 21.1333 100.627 21.6301 100.643 22.2137C100.666 22.6554 100.733 22.955 100.844 23.1128C100.954 23.2705 101.12 23.4006 101.341 23.5031V24H97.6734C97.5708 23.7397 97.4999 23.4953 97.4604 23.2666C97.421 23.0378 97.3895 22.7776 97.3658 22.4858C96.9005 22.9905 96.3642 23.4203 95.757 23.7752C95.0314 24.1932 94.2113 24.4022 93.2965 24.4022C92.1293 24.4022 91.1632 24.071 90.3982 23.4085C89.6411 22.7382 89.2626 21.7918 89.2626 20.5694C89.2626 18.9843 89.8738 17.8368 91.0962 17.127C91.7665 16.7406 92.7523 16.4646 94.0535 16.299L95.201 16.157Z" fill="white"></path> <path d="M111.004 24C111.035 22.7697 111.3 21.6459 111.796 20.6286C112.277 19.4851 113.413 18.2745 115.203 16.9969C116.757 15.8849 117.762 15.0884 118.22 14.6074C118.922 13.8582 119.273 13.038 119.273 12.1468C119.273 11.4213 119.072 10.818 118.669 10.3369C118.267 9.85585 117.691 9.61532 116.942 9.61532C115.917 9.61532 115.219 9.9978 114.848 10.7628C114.635 11.2044 114.509 11.9063 114.47 12.8684H111.193C111.248 11.4095 111.512 10.2305 111.986 9.33141C112.885 7.62007 114.482 6.76441 116.777 6.76441C118.59 6.76441 120.034 7.26913 121.106 8.27858C122.179 9.28015 122.715 10.609 122.715 12.2651C122.715 13.5348 122.336 14.6626 121.579 15.6484C121.083 16.3029 120.266 17.0324 119.131 17.8368L117.782 18.795C116.938 19.3944 116.359 19.8281 116.043 20.0962C115.736 20.3644 115.475 20.6759 115.262 21.0308H122.75V24H111.004Z" fill="white"></path> <path d="M133.774 6.56331H137.477V17.2808C137.477 18.4796 137.619 19.3549 137.903 19.907C138.344 20.8849 139.306 21.3738 140.789 21.3738C142.264 21.3738 143.222 20.8849 143.664 19.907C143.948 19.3549 144.089 18.4796 144.089 17.2808V6.56331H147.792V17.2808C147.792 19.1341 147.504 20.5773 146.929 21.6104C145.856 23.5031 143.81 24.4495 140.789 24.4495C137.769 24.4495 135.718 23.5031 134.638 21.6104C134.062 20.5773 133.774 19.1341 133.774 17.2808V6.56331Z" fill="white"></path> <path d="M158.882 10.7983C160.214 10.7983 161.303 11.1492 162.146 11.8511C162.998 12.5451 163.424 13.7004 163.424 15.3171V24H159.97V16.157C159.97 15.4788 159.879 14.9583 159.698 14.5955C159.367 13.9331 158.736 13.6019 157.805 13.6019C156.662 13.6019 155.877 14.0869 155.451 15.0569C155.23 15.5695 155.12 16.2241 155.12 17.0206V24H151.76V11.1295H155.013V13.0104C155.447 12.3479 155.857 11.8708 156.244 11.579C156.938 11.0585 157.817 10.7983 158.882 10.7983Z" fill="white"></path> <path d="M173.058 21.6223C174.044 21.6223 174.801 21.2713 175.33 20.5694C175.858 19.8675 176.122 18.8699 176.122 17.5766C176.122 16.2832 175.858 15.2895 175.33 14.5955C174.801 13.8937 174.044 13.5427 173.058 13.5427C172.073 13.5427 171.312 13.8937 170.775 14.5955C170.247 15.2895 169.983 16.2832 169.983 17.5766C169.983 18.8699 170.247 19.8675 170.775 20.5694C171.312 21.2713 172.073 21.6223 173.058 21.6223ZM179.659 17.5766C179.659 19.4693 179.115 21.0899 178.027 22.4385C176.939 23.7792 175.286 24.4495 173.07 24.4495C170.854 24.4495 169.202 23.7792 168.114 22.4385C167.025 21.0899 166.481 19.4693 166.481 17.5766C166.481 15.7154 167.025 14.1026 168.114 12.7383C169.202 11.374 170.854 10.6918 173.07 10.6918C175.286 10.6918 176.939 11.374 178.027 12.7383C179.115 14.1026 179.659 15.7154 179.659 17.5766Z" fill="white"></path> <path d="M187.567 6.38586C187.78 6.38586 187.973 6.39375 188.146 6.40952C188.32 6.41741 188.556 6.43318 188.856 6.45684V9.20128C188.667 9.17762 188.347 9.16185 187.898 9.15397C187.456 9.13819 187.149 9.23677 186.975 9.4497C186.81 9.65475 186.727 9.88345 186.727 10.1358C186.727 10.3882 186.727 10.7509 186.727 11.2241H188.939V13.6019H186.727V24H183.367V13.6019H181.486V11.2241H183.332V10.3961C183.332 9.01596 183.564 8.06565 184.03 7.54515C184.519 6.77229 185.698 6.38586 187.567 6.38586Z" fill="white"></path> <path d="M199.815 6.45684H203.116V9.53251H199.815V6.45684ZM199.815 11.165H203.175V24H199.815V11.165ZM196.444 6.38586C196.649 6.38586 196.858 6.39375 197.071 6.40952C197.284 6.4253 197.505 6.44107 197.733 6.45684V9.20128C197.576 9.1934 197.422 9.18945 197.272 9.18945C197.122 9.18157 196.941 9.17762 196.728 9.17762C196.199 9.17762 195.876 9.32352 195.758 9.61532C195.64 9.90711 195.588 10.3645 195.604 10.9875V11.2241H197.816V13.6019H195.604V24H192.244V13.6019H190.364V11.2241H192.209V10.3961C192.209 9.02384 192.513 8.00256 193.12 7.33222C193.664 6.70132 194.772 6.38586 196.444 6.38586Z" fill="white"></path> <path d="M214.844 15.7312C214.781 15.2501 214.619 14.8164 214.359 14.4299C213.98 13.9094 213.393 13.6492 212.596 13.6492C211.461 13.6492 210.684 14.213 210.266 15.3408C210.045 15.9402 209.935 16.7367 209.935 17.7303C209.935 18.6767 210.045 19.4377 210.266 20.0134C210.668 21.086 211.425 21.6223 212.537 21.6223C213.326 21.6223 213.886 21.4093 214.217 20.9835C214.548 20.5576 214.749 20.0056 214.82 19.3273H218.263C218.184 20.3526 217.813 21.3226 217.151 22.2374C216.094 23.7121 214.529 24.4495 212.454 24.4495C210.38 24.4495 208.854 23.8344 207.876 22.6041C206.899 21.3738 206.41 19.7769 206.41 17.8132C206.41 15.5971 206.95 13.8739 208.03 12.6437C209.111 11.4134 210.601 10.7983 212.502 10.7983C214.118 10.7983 215.439 11.161 216.465 11.8866C217.498 12.6121 218.109 13.8937 218.298 15.7312H214.844Z" fill="white"></path> <path d="M224.822 9.568H221.403V6.45684H224.822V9.568ZM221.403 11.1058H224.822V24H221.403V11.1058Z" fill="white"></path> <path d="M235.935 17.7303C235.722 17.8644 235.505 17.9748 235.284 18.0616C235.071 18.1404 234.775 18.2154 234.397 18.2863L233.64 18.4283C232.93 18.5545 232.421 18.7083 232.114 18.8896C231.593 19.1972 231.333 19.6743 231.333 20.321C231.333 20.8967 231.491 21.3147 231.806 21.5749C232.129 21.8273 232.52 21.9535 232.977 21.9535C233.703 21.9535 234.369 21.7405 234.976 21.3147C235.592 20.8888 235.911 20.112 235.935 18.9843V17.7303ZM233.888 16.157C234.511 16.0782 234.957 15.9796 235.225 15.8613C235.706 15.6562 235.946 15.3368 235.946 14.9031C235.946 14.3747 235.761 14.0119 235.39 13.8148C235.028 13.6097 234.491 13.5072 233.782 13.5072C232.985 13.5072 232.421 13.7044 232.09 14.0987C231.853 14.3905 231.696 14.7848 231.617 15.2816H228.364C228.435 14.1539 228.75 13.2273 229.31 12.5017C230.201 11.3661 231.731 10.7983 233.9 10.7983C235.312 10.7983 236.566 11.0782 237.662 11.6382C238.758 12.1981 239.306 13.2549 239.306 14.8085V20.7232C239.306 21.1333 239.314 21.6301 239.33 22.2137C239.353 22.6554 239.42 22.955 239.531 23.1128C239.641 23.2705 239.807 23.4006 240.028 23.5031V24H236.36C236.258 23.7397 236.187 23.4953 236.148 23.2666C236.108 23.0378 236.077 22.7776 236.053 22.4858C235.588 22.9905 235.051 23.4203 234.444 23.7752C233.719 24.1932 232.898 24.4022 231.984 24.4022C230.816 24.4022 229.85 24.071 229.085 23.4085C228.328 22.7382 227.95 21.7918 227.95 20.5694C227.95 18.9843 228.561 17.8368 229.783 17.127C230.454 16.7406 231.439 16.4646 232.741 16.299L233.888 16.157Z" fill="white"></path> <path d="M246.48 24H243.108V6.56331H246.48V24Z" fill="white"></path> <g clip-path="url(#clip0)"> <path d="M31.4948 0H27.5862L25.9586 0.81376L24.3311 0H16.6701L14.8247 0.922701H9.72416L7.87876 0H0V14.8247L0.922701 16.6701V21.7707L0 23.6161V31.4948H15.7474L17.375 30.6811L19.0026 31.4948H31.4948V19.0026L30.6811 17.375L31.4948 15.7474V0ZM8.3043 25.9586L5.5362 23.1905V17.6543L13.8405 25.9586H8.3043ZM25.0359 25.9586H21.3451L18.9532 23.1478L18.4599 21.1445L16.5612 20.3371L15.7474 19.3808L5.5362 7.3816L7.3816 5.5362L15.7474 11.8244L25.9586 19.4997L25.0359 25.9586ZM25.9586 13.8405L17.6543 5.5362H23.1905L25.9586 8.3043V13.8405Z" fill="white"></path> </g> <defs> <clipPath id="clip0"> <rect width="31.4948" height="31.4948" fill="white"></rect> </clipPath> </defs> </svg> 