<?xml version="1.0" encoding="UTF-8"?> <svg xmlns="http://www.w3.org/2000/svg" width="592" height="190" viewBox="0 0 592 190" fill="none"> <g filter="url(#filter0_d)"> <path d="M52.5547 58.5312C52.5547 61.3854 51.4922 63.75 49.3672 65.625C47.263 67.5 44.2526 68.6771 40.3359 69.1562V76.2812H36.2422V69.4375C33.8672 69.3958 31.5859 69.1979 29.3984 68.8438C27.2318 68.4688 25.4401 67.9583 24.0234 67.3125V62.0625C25.5859 62.7917 27.4922 63.4271 29.7422 63.9688C32.013 64.4896 34.1797 64.7708 36.2422 64.8125V51.4375C31.9714 50.0833 28.9505 48.5 27.1797 46.6875C25.4089 44.8542 24.5234 42.5104 24.5234 39.6562C24.5234 36.9062 25.5755 34.6458 27.6797 32.875C29.7839 31.1042 32.638 30.0208 36.2422 29.625V24H40.3359V29.5625C44.2943 29.6667 48.0547 30.4583 51.6172 31.9375L49.8672 36.3438C46.638 35.0729 43.4609 34.3229 40.3359 34.0938V47.2812C43.6693 48.4062 46.1484 49.4688 47.7734 50.4688C49.4193 51.4688 50.6276 52.6146 51.3984 53.9062C52.1693 55.1771 52.5547 56.7188 52.5547 58.5312ZM46.8672 58.9375C46.8672 57.4375 46.3776 56.25 45.3984 55.375C44.4193 54.4792 42.7318 53.6146 40.3359 52.7812V64.5C44.6901 63.8333 46.8672 61.9792 46.8672 58.9375ZM30.2422 39.5938C30.2422 41.1146 30.6901 42.3438 31.5859 43.2812C32.4818 44.2188 34.0339 45.0833 36.2422 45.875V34.2188C34.2839 34.5521 32.7943 35.1875 31.7734 36.125C30.7526 37.0625 30.2422 38.2188 30.2422 39.5938Z" fill="url(#paint0_linear)"></path> <path d="M80.8184 72.5625H75.3184V44.0312C75.3184 43.1354 75.3184 42.1771 75.3184 41.1562C75.3393 40.1354 75.3601 39.125 75.3809 38.125C75.4226 37.1042 75.4539 36.1354 75.4747 35.2188C75.5164 34.2812 75.5476 33.4583 75.5684 32.75C75.2143 33.125 74.9018 33.4479 74.6309 33.7188C74.3601 33.9896 74.0789 34.25 73.7872 34.5C73.5164 34.75 73.2247 35.0208 72.9122 35.3125C72.5997 35.5833 72.2247 35.9062 71.7872 36.2812L67.1622 40.0625L64.1622 36.2188L76.1309 26.875H80.8184V72.5625Z" fill="url(#paint1_linear)"></path> <path d="M128.02 49.6562C128.02 53.3438 127.749 56.6458 127.207 59.5625C126.686 62.4792 125.832 64.9479 124.645 66.9688C123.478 68.9896 121.968 70.5312 120.113 71.5938C118.259 72.6562 116.009 73.1875 113.363 73.1875C110.905 73.1875 108.759 72.6562 106.926 71.5938C105.113 70.5312 103.603 68.9896 102.395 66.9688C101.207 64.9479 100.311 62.4792 99.7072 59.5625C99.1239 56.6458 98.8322 53.3438 98.8322 49.6562C98.8322 45.9688 99.0926 42.6667 99.6134 39.75C100.155 36.8333 100.999 34.375 102.145 32.375C103.311 30.3542 104.811 28.8125 106.645 27.75C108.499 26.6875 110.738 26.1562 113.363 26.1562C115.843 26.1562 117.999 26.6875 119.832 27.75C121.666 28.7917 123.186 30.3229 124.395 32.3438C125.603 34.3438 126.509 36.8021 127.113 39.7188C127.718 42.6354 128.02 45.9479 128.02 49.6562ZM104.613 49.6562C104.613 52.7812 104.77 55.5104 105.082 57.8438C105.395 60.1771 105.895 62.125 106.582 63.6875C107.27 65.2292 108.166 66.3958 109.27 67.1875C110.395 67.9583 111.759 68.3438 113.363 68.3438C114.968 68.3438 116.332 67.9583 117.457 67.1875C118.582 66.4167 119.499 65.2604 120.207 63.7188C120.936 62.1771 121.457 60.2396 121.77 57.9062C122.103 55.5521 122.27 52.8021 122.27 49.6562C122.27 46.5312 122.103 43.8021 121.77 41.4688C121.457 39.1354 120.936 37.1979 120.207 35.6562C119.499 34.1146 118.582 32.9583 117.457 32.1875C116.332 31.4167 114.968 31.0312 113.363 31.0312C111.759 31.0312 110.395 31.4167 109.27 32.1875C108.166 32.9583 107.27 34.1146 106.582 35.6562C105.895 37.1979 105.395 39.1354 105.082 41.4688C104.77 43.8021 104.613 46.5312 104.613 49.6562Z" fill="url(#paint2_linear)"></path> <path d="M144.252 65.125L144.721 65.8438C144.429 66.9688 144.075 68.1667 143.658 69.4375C143.263 70.7083 142.815 71.9896 142.315 73.2812C141.836 74.5729 141.325 75.8542 140.783 77.125C140.263 78.4167 139.742 79.6458 139.221 80.8125H134.908C135.221 79.5417 135.523 78.2188 135.815 76.8438C136.127 75.4688 136.419 74.0938 136.69 72.7188C136.981 71.3646 137.242 70.0417 137.471 68.75C137.7 67.4375 137.898 66.2292 138.065 65.125H144.252Z" fill="url(#paint3_linear)"></path> <path d="M183.11 49.6562C183.11 53.3438 182.839 56.6458 182.297 59.5625C181.776 62.4792 180.922 64.9479 179.735 66.9688C178.568 68.9896 177.058 70.5312 175.203 71.5938C173.349 72.6562 171.099 73.1875 168.453 73.1875C165.995 73.1875 163.849 72.6562 162.016 71.5938C160.203 70.5312 158.693 68.9896 157.485 66.9688C156.297 64.9479 155.401 62.4792 154.797 59.5625C154.214 56.6458 153.922 53.3438 153.922 49.6562C153.922 45.9688 154.183 42.6667 154.703 39.75C155.245 36.8333 156.089 34.375 157.235 32.375C158.401 30.3542 159.901 28.8125 161.735 27.75C163.589 26.6875 165.828 26.1562 168.453 26.1562C170.933 26.1562 173.089 26.6875 174.922 27.75C176.756 28.7917 178.276 30.3229 179.485 32.3438C180.693 34.3438 181.599 36.8021 182.203 39.7188C182.808 42.6354 183.11 45.9479 183.11 49.6562ZM159.703 49.6562C159.703 52.7812 159.86 55.5104 160.172 57.8438C160.485 60.1771 160.985 62.125 161.672 63.6875C162.36 65.2292 163.256 66.3958 164.36 67.1875C165.485 67.9583 166.849 68.3438 168.453 68.3438C170.058 68.3438 171.422 67.9583 172.547 67.1875C173.672 66.4167 174.589 65.2604 175.297 63.7188C176.026 62.1771 176.547 60.2396 176.86 57.9062C177.193 55.5521 177.36 52.8021 177.36 49.6562C177.36 46.5312 177.193 43.8021 176.86 41.4688C176.547 39.1354 176.026 37.1979 175.297 35.6562C174.589 34.1146 173.672 32.9583 172.547 32.1875C171.422 31.4167 170.058 31.0312 168.453 31.0312C166.849 31.0312 165.485 31.4167 164.36 32.1875C163.256 32.9583 162.36 34.1146 161.672 35.6562C160.985 37.1979 160.485 39.1354 160.172 41.4688C159.86 43.8021 159.703 46.5312 159.703 49.6562Z" fill="url(#paint4_linear)"></path> <path d="M220.28 49.6562C220.28 53.3438 220.009 56.6458 219.467 59.5625C218.946 62.4792 218.092 64.9479 216.905 66.9688C215.738 68.9896 214.228 70.5312 212.373 71.5938C210.519 72.6562 208.269 73.1875 205.623 73.1875C203.165 73.1875 201.019 72.6562 199.186 71.5938C197.373 70.5312 195.863 68.9896 194.655 66.9688C193.467 64.9479 192.571 62.4792 191.967 59.5625C191.384 56.6458 191.092 53.3438 191.092 49.6562C191.092 45.9688 191.353 42.6667 191.873 39.75C192.415 36.8333 193.259 34.375 194.405 32.375C195.571 30.3542 197.071 28.8125 198.905 27.75C200.759 26.6875 202.998 26.1562 205.623 26.1562C208.103 26.1562 210.259 26.6875 212.092 27.75C213.926 28.7917 215.446 30.3229 216.655 32.3438C217.863 34.3438 218.769 36.8021 219.373 39.7188C219.978 42.6354 220.28 45.9479 220.28 49.6562ZM196.873 49.6562C196.873 52.7812 197.03 55.5104 197.342 57.8438C197.655 60.1771 198.155 62.125 198.842 63.6875C199.53 65.2292 200.426 66.3958 201.53 67.1875C202.655 67.9583 204.019 68.3438 205.623 68.3438C207.228 68.3438 208.592 67.9583 209.717 67.1875C210.842 66.4167 211.759 65.2604 212.467 63.7188C213.196 62.1771 213.717 60.2396 214.03 57.9062C214.363 55.5521 214.53 52.8021 214.53 49.6562C214.53 46.5312 214.363 43.8021 214.03 41.4688C213.717 39.1354 213.196 37.1979 212.467 35.6562C211.759 34.1146 210.842 32.9583 209.717 32.1875C208.592 31.4167 207.228 31.0312 205.623 31.0312C204.019 31.0312 202.655 31.4167 201.53 32.1875C200.426 32.9583 199.53 34.1146 198.842 35.6562C198.155 37.1979 197.655 39.1354 197.342 41.4688C197.03 43.8021 196.873 46.5312 196.873 49.6562Z" fill="url(#paint5_linear)"></path> <path d="M257.45 49.6562C257.45 53.3438 257.179 56.6458 256.637 59.5625C256.116 62.4792 255.262 64.9479 254.075 66.9688C252.908 68.9896 251.398 70.5312 249.543 71.5938C247.689 72.6562 245.439 73.1875 242.793 73.1875C240.335 73.1875 238.189 72.6562 236.356 71.5938C234.543 70.5312 233.033 68.9896 231.825 66.9688C230.637 64.9479 229.741 62.4792 229.137 59.5625C228.554 56.6458 228.262 53.3438 228.262 49.6562C228.262 45.9688 228.523 42.6667 229.043 39.75C229.585 36.8333 230.429 34.375 231.575 32.375C232.741 30.3542 234.241 28.8125 236.075 27.75C237.929 26.6875 240.168 26.1562 242.793 26.1562C245.273 26.1562 247.429 26.6875 249.262 27.75C251.096 28.7917 252.616 30.3229 253.825 32.3438C255.033 34.3438 255.939 36.8021 256.543 39.7188C257.148 42.6354 257.45 45.9479 257.45 49.6562ZM234.043 49.6562C234.043 52.7812 234.2 55.5104 234.512 57.8438C234.825 60.1771 235.325 62.125 236.012 63.6875C236.7 65.2292 237.596 66.3958 238.7 67.1875C239.825 67.9583 241.189 68.3438 242.793 68.3438C244.398 68.3438 245.762 67.9583 246.887 67.1875C248.012 66.4167 248.929 65.2604 249.637 63.7188C250.366 62.1771 250.887 60.2396 251.2 57.9062C251.533 55.5521 251.7 52.8021 251.7 49.6562C251.7 46.5312 251.533 43.8021 251.2 41.4688C250.887 39.1354 250.366 37.1979 249.637 35.6562C248.929 34.1146 248.012 32.9583 246.887 32.1875C245.762 31.4167 244.398 31.0312 242.793 31.0312C241.189 31.0312 239.825 31.4167 238.7 32.1875C237.596 32.9583 236.7 34.1146 236.012 35.6562C235.325 37.1979 234.825 39.1354 234.512 41.4688C234.2 43.8021 234.043 46.5312 234.043 49.6562Z" fill="url(#paint6_linear)"></path> <path d="M321.883 26.875V56.4375C321.883 61.6458 320.311 65.7396 317.165 68.7188C314.019 71.6979 309.654 73.1875 304.071 73.1875C298.55 73.1875 294.269 71.6875 291.227 68.6875C288.186 65.6667 286.665 61.5417 286.665 56.3125V26.875H292.446V56.5C292.446 60.2292 293.436 63.1146 295.415 65.1562C297.415 67.1979 300.415 68.2188 304.415 68.2188C308.186 68.2188 311.081 67.2083 313.102 65.1875C315.144 63.1667 316.165 60.25 316.165 56.4375V26.875H321.883Z" fill="url(#paint7_linear)"></path> <path d="M361.772 60.3438C361.772 64.3229 360.335 67.4583 357.46 69.75C354.585 72.0417 350.585 73.1875 345.46 73.1875C340.043 73.1875 335.856 72.4688 332.897 71.0312V65.5312C334.835 66.3646 336.949 67.0208 339.241 67.5C341.553 67.9792 343.71 68.2188 345.71 68.2188C349.126 68.2188 351.699 67.5625 353.428 66.25C355.158 64.9375 356.022 63.1354 356.022 60.8438C356.022 59.3229 355.71 58.0729 355.085 57.0938C354.46 56.1146 353.408 55.1979 351.928 54.3438C350.47 53.4896 348.251 52.5208 345.272 51.4375C341.043 49.8958 338.022 48.0833 336.21 46C334.397 43.8958 333.491 41.1875 333.491 37.875C333.491 34.3125 334.824 31.4792 337.491 29.375C340.178 27.2708 343.71 26.2188 348.085 26.2188C352.647 26.2188 356.845 27.0729 360.678 28.7812L358.897 33.7188C354.981 32.0938 351.335 31.2812 347.96 31.2812C345.251 31.2812 343.126 31.8646 341.585 33.0312C340.064 34.1979 339.303 35.8333 339.303 37.9375C339.303 39.4375 339.595 40.6875 340.178 41.6875C340.783 42.6667 341.741 43.5625 343.053 44.375C344.387 45.1875 346.47 46.1146 349.303 47.1562C352.699 48.4062 355.231 49.625 356.897 50.8125C358.564 51.9792 359.793 53.3333 360.585 54.875C361.376 56.3958 361.772 58.2188 361.772 60.3438Z" fill="url(#paint8_linear)"></path> <path d="M409.505 49.2812C409.505 56.8229 407.442 62.5938 403.317 66.5938C399.213 70.5729 393.317 72.5625 385.63 72.5625H372.911V26.875H386.973C394.078 26.875 399.609 28.8333 403.567 32.75C407.526 36.6458 409.505 42.1562 409.505 49.2812ZM403.442 49.4688C403.442 43.6562 402.005 39.2604 399.13 36.2812C396.276 33.2812 391.953 31.7812 386.161 31.7812H378.661V67.625H384.88C397.255 67.625 403.442 61.5729 403.442 49.4688Z" fill="url(#paint9_linear)"></path> </g> <g filter="url(#filter1_d)"> <path d="M24.7188 108.297H34.4922C39.0859 108.297 42.3984 108.984 44.4297 110.359C46.4766 111.719 47.5 113.859 47.5 116.781C47.5 118.812 46.9453 120.492 45.8359 121.82C44.7266 123.133 43.1094 123.984 40.9844 124.375V124.609C43.625 125.062 45.5625 125.977 46.7969 127.352C48.0469 128.727 48.6719 130.547 48.6719 132.812C48.6719 135.875 47.625 138.266 45.5312 139.984C43.4375 141.703 40.5156 142.562 36.7656 142.562H24.7188V108.297ZM29.0312 122.875H35.3594C38.0469 122.875 40 122.445 41.2188 121.586C42.4375 120.727 43.0469 119.289 43.0469 117.273C43.0469 115.398 42.375 114.047 41.0312 113.219C39.7031 112.391 37.5938 111.977 34.7031 111.977H29.0312V122.875ZM29.0312 126.484V138.906H35.9453C38.6953 138.906 40.7344 138.375 42.0625 137.312C43.3906 136.25 44.0547 134.641 44.0547 132.484C44.0547 130.438 43.3516 128.93 41.9453 127.961C40.5391 126.977 38.4297 126.484 35.6172 126.484H29.0312Z" fill="white"></path> <path d="M66.2969 143.031C62.4375 143.031 59.4062 141.867 57.2031 139.539C55.0156 137.195 53.9219 133.977 53.9219 129.883C53.9219 125.758 54.9453 122.477 56.9922 120.039C59.0391 117.586 61.8047 116.359 65.2891 116.359C68.5234 116.359 71.1016 117.406 73.0234 119.5C74.9453 121.578 75.9062 124.398 75.9062 127.961V130.516H58.2812C58.3594 133.438 59.1016 135.656 60.5078 137.172C61.9141 138.688 63.9062 139.445 66.4844 139.445C67.8594 139.445 69.1641 139.328 70.3984 139.094C71.6328 138.844 73.0781 138.367 74.7344 137.664V141.367C73.3125 141.977 71.9766 142.406 70.7266 142.656C69.4766 142.906 68 143.031 66.2969 143.031ZM65.2422 119.805C63.2266 119.805 61.6328 120.453 60.4609 121.75C59.2891 123.047 58.5938 124.852 58.375 127.164H71.4766C71.4453 124.758 70.8906 122.93 69.8125 121.68C68.7344 120.43 67.2109 119.805 65.2422 119.805Z" fill="white"></path> <path d="M99.2031 135.461C99.2031 137.867 98.3047 139.734 96.5078 141.062C94.7109 142.375 92.1875 143.031 88.9375 143.031C85.5469 143.031 82.8516 142.492 80.8516 141.414V137.57C83.6797 138.945 86.4062 139.633 89.0312 139.633C91.1562 139.633 92.7031 139.289 93.6719 138.602C94.6406 137.914 95.125 136.992 95.125 135.836C95.125 134.82 94.6562 133.961 93.7188 133.258C92.7969 132.555 91.1484 131.75 88.7734 130.844C86.3516 129.906 84.6484 129.109 83.6641 128.453C82.6797 127.781 81.9531 127.031 81.4844 126.203C81.0312 125.375 80.8047 124.367 80.8047 123.18C80.8047 121.07 81.6641 119.406 83.3828 118.188C85.1016 116.969 87.4609 116.359 90.4609 116.359C93.3828 116.359 96.1172 116.938 98.6641 118.094L97.2344 121.445C94.625 120.352 92.2734 119.805 90.1797 119.805C88.4297 119.805 87.1016 120.086 86.1953 120.648C85.2891 121.195 84.8359 121.953 84.8359 122.922C84.8359 123.859 85.2266 124.641 86.0078 125.266C86.7891 125.875 88.6094 126.727 91.4688 127.82C93.6094 128.617 95.1875 129.359 96.2031 130.047C97.2344 130.734 97.9922 131.508 98.4766 132.367C98.9609 133.227 99.2031 134.258 99.2031 135.461Z" fill="white"></path> <path d="M114.062 139.586C114.609 139.586 115.25 139.531 115.984 139.422C116.719 139.312 117.273 139.188 117.648 139.047V142.281C117.258 142.453 116.648 142.617 115.82 142.773C115.008 142.945 114.18 143.031 113.336 143.031C108.305 143.031 105.789 140.383 105.789 135.086V120.109H102.156V118.094L105.836 116.406L107.523 110.922H110.031V116.828H117.461V120.109H110.031V134.969C110.031 136.453 110.383 137.594 111.086 138.391C111.805 139.188 112.797 139.586 114.062 139.586Z" fill="white"></path> <path d="M150.742 124.469H162.578V141.273C160.766 141.852 158.922 142.289 157.047 142.586C155.172 142.883 153 143.031 150.531 143.031C145.312 143.031 141.273 141.484 138.414 138.391C135.555 135.297 134.125 130.977 134.125 125.43C134.125 121.852 134.836 118.727 136.258 116.055C137.68 113.383 139.727 111.344 142.398 109.938C145.086 108.516 148.25 107.805 151.891 107.805C155.547 107.805 158.953 108.477 162.109 109.82L160.469 113.57C157.453 112.258 154.508 111.602 151.633 111.602C147.555 111.602 144.367 112.836 142.07 115.305C139.773 117.773 138.625 121.148 138.625 125.43C138.625 129.961 139.727 133.406 141.93 135.766C144.133 138.125 147.336 139.305 151.539 139.305C153.836 139.305 156.078 139.031 158.266 138.484V128.312H150.742V124.469Z" fill="white"></path> <path d="M186.133 142.562L185.312 138.906H185.125C183.844 140.516 182.562 141.609 181.281 142.188C180.016 142.75 178.414 143.031 176.477 143.031C173.945 143.031 171.961 142.367 170.523 141.039C169.086 139.711 168.367 137.836 168.367 135.414C168.367 130.195 172.484 127.461 180.719 127.211L185.078 127.047V125.523C185.078 123.57 184.656 122.133 183.812 121.211C182.969 120.273 181.617 119.805 179.758 119.805C178.398 119.805 177.109 120.008 175.891 120.414C174.688 120.82 173.555 121.273 172.492 121.773L171.203 118.609C172.5 117.922 173.914 117.383 175.445 116.992C176.977 116.602 178.492 116.406 179.992 116.406C183.102 116.406 185.414 117.094 186.93 118.469C188.445 119.844 189.203 122.031 189.203 125.031V142.562H186.133ZM177.438 139.633C179.797 139.633 181.648 139 182.992 137.734C184.352 136.453 185.031 134.641 185.031 132.297V129.977L181.234 130.141C178.281 130.25 176.125 130.719 174.766 131.547C173.422 132.375 172.75 133.68 172.75 135.461C172.75 136.805 173.156 137.836 173.969 138.555C174.797 139.273 175.953 139.633 177.438 139.633Z" fill="white"></path> <path d="M229.938 142.562V125.992C229.938 121.93 228.195 119.898 224.711 119.898C222.32 119.898 220.562 120.594 219.438 121.984C218.312 123.375 217.75 125.5 217.75 128.359V142.562H213.555V125.992C213.555 123.961 213.125 122.438 212.266 121.422C211.422 120.406 210.094 119.898 208.281 119.898C205.906 119.898 204.164 120.625 203.055 122.078C201.961 123.531 201.414 125.914 201.414 129.227V142.562H197.195V116.828H200.594L201.227 120.344H201.461C202.195 119.094 203.227 118.117 204.555 117.414C205.898 116.711 207.398 116.359 209.055 116.359C213.086 116.359 215.711 117.797 216.93 120.672H217.164C217.992 119.297 219.117 118.234 220.539 117.484C221.977 116.734 223.602 116.359 225.414 116.359C228.32 116.359 230.492 117.109 231.93 118.609C233.383 120.109 234.109 122.508 234.109 125.805V142.562H229.938Z" fill="white"></path> <path d="M253.047 143.031C249.188 143.031 246.156 141.867 243.953 139.539C241.766 137.195 240.672 133.977 240.672 129.883C240.672 125.758 241.695 122.477 243.742 120.039C245.789 117.586 248.555 116.359 252.039 116.359C255.273 116.359 257.852 117.406 259.773 119.5C261.695 121.578 262.656 124.398 262.656 127.961V130.516H245.031C245.109 133.438 245.852 135.656 247.258 137.172C248.664 138.688 250.656 139.445 253.234 139.445C254.609 139.445 255.914 139.328 257.148 139.094C258.383 138.844 259.828 138.367 261.484 137.664V141.367C260.062 141.977 258.727 142.406 257.477 142.656C256.227 142.906 254.75 143.031 253.047 143.031ZM251.992 119.805C249.977 119.805 248.383 120.453 247.211 121.75C246.039 123.047 245.344 124.852 245.125 127.164H258.227C258.195 124.758 257.641 122.93 256.562 121.68C255.484 120.43 253.961 119.805 251.992 119.805Z" fill="white"></path> <path d="M279.93 130.281V126.344H291.555V130.281H279.93Z" fill="white"></path> <path d="M325.914 124.469H337.75V141.273C335.938 141.852 334.094 142.289 332.219 142.586C330.344 142.883 328.172 143.031 325.703 143.031C320.484 143.031 316.445 141.484 313.586 138.391C310.727 135.297 309.297 130.977 309.297 125.43C309.297 121.852 310.008 118.727 311.43 116.055C312.852 113.383 314.898 111.344 317.57 109.938C320.258 108.516 323.422 107.805 327.062 107.805C330.719 107.805 334.125 108.477 337.281 109.82L335.641 113.57C332.625 112.258 329.68 111.602 326.805 111.602C322.727 111.602 319.539 112.836 317.242 115.305C314.945 117.773 313.797 121.148 313.797 125.43C313.797 129.961 314.898 133.406 317.102 135.766C319.305 138.125 322.508 139.305 326.711 139.305C329.008 139.305 331.25 139.031 333.438 138.484V128.312H325.914V124.469Z" fill="white"></path> <path d="M357.414 116.359C358.555 116.359 359.562 116.453 360.438 116.641L359.922 120.531C358.969 120.312 358.039 120.203 357.133 120.203C355.773 120.203 354.508 120.578 353.336 121.328C352.18 122.078 351.273 123.117 350.617 124.445C349.961 125.758 349.633 127.219 349.633 128.828V142.562H345.414V116.828H348.883L349.352 121.539H349.539C350.523 119.836 351.688 118.547 353.031 117.672C354.375 116.797 355.836 116.359 357.414 116.359Z" fill="white"></path> <path d="M380.664 142.562L379.844 138.906H379.656C378.375 140.516 377.094 141.609 375.812 142.188C374.547 142.75 372.945 143.031 371.008 143.031C368.477 143.031 366.492 142.367 365.055 141.039C363.617 139.711 362.898 137.836 362.898 135.414C362.898 130.195 367.016 127.461 375.25 127.211L379.609 127.047V125.523C379.609 123.57 379.188 122.133 378.344 121.211C377.5 120.273 376.148 119.805 374.289 119.805C372.93 119.805 371.641 120.008 370.422 120.414C369.219 120.82 368.086 121.273 367.023 121.773L365.734 118.609C367.031 117.922 368.445 117.383 369.977 116.992C371.508 116.602 373.023 116.406 374.523 116.406C377.633 116.406 379.945 117.094 381.461 118.469C382.977 119.844 383.734 122.031 383.734 125.031V142.562H380.664ZM371.969 139.633C374.328 139.633 376.18 139 377.523 137.734C378.883 136.453 379.562 134.641 379.562 132.297V129.977L375.766 130.141C372.812 130.25 370.656 130.719 369.297 131.547C367.953 132.375 367.281 133.68 367.281 135.461C367.281 136.805 367.688 137.836 368.5 138.555C369.328 139.273 370.484 139.633 371.969 139.633Z" fill="white"></path> <path d="M409.258 142.562V126.109C409.258 124.016 408.789 122.461 407.852 121.445C406.93 120.414 405.477 119.898 403.492 119.898C400.852 119.898 398.93 120.633 397.727 122.102C396.539 123.555 395.945 125.93 395.945 129.227V142.562H391.727V116.828H395.125L395.758 120.344H395.992C396.789 119.078 397.906 118.102 399.344 117.414C400.781 116.711 402.367 116.359 404.102 116.359C407.258 116.359 409.602 117.125 411.133 118.656C412.664 120.188 413.43 122.57 413.43 125.805V142.562H409.258Z" fill="white"></path> <path d="M430.516 143.031C427.172 143.031 424.578 141.875 422.734 139.562C420.891 137.25 419.969 133.977 419.969 129.742C419.969 125.539 420.891 122.258 422.734 119.898C424.594 117.539 427.203 116.359 430.562 116.359C434.016 116.359 436.672 117.625 438.531 120.156H438.836C438.789 119.844 438.727 119.219 438.648 118.281C438.57 117.328 438.531 116.688 438.531 116.359V106.094H442.75V142.562H439.352L438.719 139.117H438.531C436.734 141.727 434.062 143.031 430.516 143.031ZM431.195 139.539C433.758 139.539 435.625 138.844 436.797 137.453C437.984 136.047 438.578 133.75 438.578 130.562V129.789C438.578 126.211 437.977 123.664 436.773 122.148C435.586 120.617 433.711 119.852 431.148 119.852C428.977 119.852 427.297 120.719 426.109 122.453C424.922 124.172 424.328 126.633 424.328 129.836C424.328 133.023 424.914 135.438 426.086 137.078C427.273 138.719 428.977 139.539 431.195 139.539Z" fill="white"></path> <path d="M485.922 118.375C485.922 121.875 484.727 124.562 482.336 126.438C479.945 128.297 476.578 129.227 472.234 129.227H468.297V142.562H463.984V108.297H473.055C481.633 108.297 485.922 111.656 485.922 118.375ZM468.297 125.523H471.742C475.148 125.523 477.617 124.977 479.148 123.883C480.68 122.773 481.445 121 481.445 118.562C481.445 116.359 480.734 114.711 479.312 113.617C477.891 112.523 475.672 111.977 472.656 111.977H468.297V125.523Z" fill="white"></path> <path d="M504.461 116.359C505.602 116.359 506.609 116.453 507.484 116.641L506.969 120.531C506.016 120.312 505.086 120.203 504.18 120.203C502.82 120.203 501.555 120.578 500.383 121.328C499.227 122.078 498.32 123.117 497.664 124.445C497.008 125.758 496.68 127.219 496.68 128.828V142.562H492.461V116.828H495.93L496.398 121.539H496.586C497.57 119.836 498.734 118.547 500.078 117.672C501.422 116.797 502.883 116.359 504.461 116.359Z" fill="white"></path> <path d="M516.508 142.562H512.289V116.828H516.508V142.562ZM511.961 109.867C511.961 108.93 512.195 108.25 512.664 107.828C513.148 107.406 513.742 107.195 514.445 107.195C515.102 107.195 515.672 107.406 516.156 107.828C516.656 108.25 516.906 108.93 516.906 109.867C516.906 110.789 516.656 111.469 516.156 111.906C515.672 112.344 515.102 112.562 514.445 112.562C513.742 112.562 513.148 112.344 512.664 111.906C512.195 111.469 511.961 110.789 511.961 109.867Z" fill="white"></path> <path d="M541.281 142.562H522.461V139.773L536.289 120.109H523.281V116.828H540.93V119.992L527.312 139.305H541.281V142.562Z" fill="white"></path> <path d="M558.203 143.031C554.344 143.031 551.312 141.867 549.109 139.539C546.922 137.195 545.828 133.977 545.828 129.883C545.828 125.758 546.852 122.477 548.898 120.039C550.945 117.586 553.711 116.359 557.195 116.359C560.43 116.359 563.008 117.406 564.93 119.5C566.852 121.578 567.812 124.398 567.812 127.961V130.516H550.188C550.266 133.438 551.008 135.656 552.414 137.172C553.82 138.688 555.812 139.445 558.391 139.445C559.766 139.445 561.07 139.328 562.305 139.094C563.539 138.844 564.984 138.367 566.641 137.664V141.367C565.219 141.977 563.883 142.406 562.633 142.656C561.383 142.906 559.906 143.031 558.203 143.031ZM557.148 119.805C555.133 119.805 553.539 120.453 552.367 121.75C551.195 123.047 550.5 124.852 550.281 127.164H563.383C563.352 124.758 562.797 122.93 561.719 121.68C560.641 120.43 559.117 119.805 557.148 119.805Z" fill="white"></path> </g> <path d="M23.7969 189.562H22V175.285H29.9785V176.867H23.7969V181.926H29.5977V183.498H23.7969V189.562Z" fill="white"></path> <path d="M41.4629 184.182C41.4629 185.933 41.0202 187.3 40.1348 188.283C39.2493 189.266 38.0254 189.758 36.4629 189.758C35.4928 189.758 34.6335 189.533 33.8848 189.084C33.1361 188.628 32.5599 187.977 32.1562 187.131C31.7526 186.285 31.5508 185.301 31.5508 184.182C31.5508 182.437 31.987 181.079 32.8594 180.109C33.7318 179.133 34.9557 178.645 36.5312 178.645C38.0417 178.645 39.2396 179.143 40.125 180.139C41.0169 181.128 41.4629 182.476 41.4629 184.182ZM33.3672 184.182C33.3672 185.529 33.6309 186.555 34.1582 187.258C34.6921 187.954 35.4766 188.303 36.5117 188.303C37.5339 188.303 38.3118 187.954 38.8457 187.258C39.3796 186.555 39.6465 185.529 39.6465 184.182C39.6465 182.834 39.3763 181.822 38.8359 181.145C38.3021 180.461 37.5176 180.119 36.4824 180.119C34.4056 180.119 33.3672 181.473 33.3672 184.182Z" fill="white"></path> <path d="M49.2559 178.645C49.7311 178.645 50.151 178.684 50.5156 178.762L50.3008 180.383C49.9036 180.292 49.5163 180.246 49.1387 180.246C48.5723 180.246 48.0449 180.402 47.5566 180.715C47.0749 181.027 46.6973 181.46 46.4238 182.014C46.1504 182.561 46.0137 183.169 46.0137 183.84V189.562H44.2559V178.84H45.7012L45.8965 180.803H45.9746C46.3848 180.093 46.8698 179.556 47.4297 179.191C47.9896 178.827 48.5983 178.645 49.2559 178.645Z" fill="white"></path> <path d="M61.2969 188.322C61.5247 188.322 61.7917 188.299 62.0977 188.254C62.4036 188.208 62.6348 188.156 62.791 188.098V189.445C62.6283 189.517 62.3743 189.585 62.0293 189.65C61.6908 189.722 61.3457 189.758 60.9941 189.758C58.8978 189.758 57.8496 188.654 57.8496 186.447V180.207H56.3359V179.367L57.8691 178.664L58.5723 176.379H59.6172V178.84H62.7129V180.207H59.6172V186.398C59.6172 187.017 59.7637 187.492 60.0566 187.824C60.3561 188.156 60.7695 188.322 61.2969 188.322Z" fill="white"></path> <path d="M72.2441 189.562V182.707C72.2441 181.835 72.0488 181.187 71.6582 180.764C71.2741 180.334 70.6686 180.119 69.8418 180.119C68.7546 180.119 67.957 180.422 67.4492 181.027C66.9479 181.633 66.6973 182.632 66.6973 184.025V189.562H64.9395V174.367H66.6973V178.82C66.6973 179.406 66.6647 179.908 66.5996 180.324H66.7168C67.0358 179.803 67.4883 179.396 68.0742 179.104C68.6602 178.811 69.321 178.664 70.0566 178.664C71.3587 178.664 72.3385 178.977 72.9961 179.602C73.6536 180.22 73.9824 181.213 73.9824 182.58V189.562H72.2441Z" fill="white"></path> <path d="M81.8633 189.758C80.2552 189.758 78.9922 189.273 78.0742 188.303C77.1628 187.326 76.707 185.985 76.707 184.279C76.707 182.561 77.1335 181.193 77.9863 180.178C78.8392 179.156 79.9915 178.645 81.4434 178.645C82.791 178.645 83.8652 179.081 84.666 179.953C85.4668 180.819 85.8672 181.994 85.8672 183.479V184.543H78.5234C78.556 185.76 78.8652 186.685 79.4512 187.316C80.0371 187.948 80.8672 188.264 81.9414 188.264C82.5143 188.264 83.0579 188.215 83.5723 188.117C84.0866 188.013 84.6888 187.814 85.3789 187.521V189.064C84.7865 189.318 84.2298 189.497 83.709 189.602C83.1882 189.706 82.5729 189.758 81.8633 189.758ZM81.4238 180.08C80.584 180.08 79.9199 180.35 79.4316 180.891C78.9434 181.431 78.6536 182.183 78.5625 183.146H84.0215C84.0085 182.144 83.7773 181.382 83.3281 180.861C82.8789 180.34 82.2441 180.08 81.4238 180.08Z" fill="white"></path> <path d="M103.104 184.182C103.104 185.933 102.661 187.3 101.775 188.283C100.89 189.266 99.666 189.758 98.1035 189.758C97.1335 189.758 96.2741 189.533 95.5254 189.084C94.7767 188.628 94.2005 187.977 93.7969 187.131C93.3932 186.285 93.1914 185.301 93.1914 184.182C93.1914 182.437 93.6276 181.079 94.5 180.109C95.3724 179.133 96.5964 178.645 98.1719 178.645C99.6823 178.645 100.88 179.143 101.766 180.139C102.658 181.128 103.104 182.476 103.104 184.182ZM95.0078 184.182C95.0078 185.529 95.2715 186.555 95.7988 187.258C96.3327 187.954 97.1172 188.303 98.1523 188.303C99.1745 188.303 99.9525 187.954 100.486 187.258C101.02 186.555 101.287 185.529 101.287 184.182C101.287 182.834 101.017 181.822 100.477 181.145C99.9427 180.461 99.1582 180.119 98.123 180.119C96.0462 180.119 95.0078 181.473 95.0078 184.182Z" fill="white"></path> <path d="M108.064 189.562L104.002 178.84H105.887L108.162 185.158C108.611 186.428 108.898 187.375 109.021 188H109.1C109.119 187.915 109.142 187.821 109.168 187.717C109.201 187.606 109.236 187.489 109.275 187.365C109.314 187.235 109.555 186.499 109.998 185.158L112.283 178.84H114.158L110.086 189.562H108.064Z" fill="white"></path> <path d="M120.418 189.758C118.81 189.758 117.547 189.273 116.629 188.303C115.717 187.326 115.262 185.985 115.262 184.279C115.262 182.561 115.688 181.193 116.541 180.178C117.394 179.156 118.546 178.645 119.998 178.645C121.346 178.645 122.42 179.081 123.221 179.953C124.021 180.819 124.422 181.994 124.422 183.479V184.543H117.078C117.111 185.76 117.42 186.685 118.006 187.316C118.592 187.948 119.422 188.264 120.496 188.264C121.069 188.264 121.613 188.215 122.127 188.117C122.641 188.013 123.243 187.814 123.934 187.521V189.064C123.341 189.318 122.785 189.497 122.264 189.602C121.743 189.706 121.128 189.758 120.418 189.758ZM119.979 180.08C119.139 180.08 118.475 180.35 117.986 180.891C117.498 181.431 117.208 182.183 117.117 183.146H122.576C122.563 182.144 122.332 181.382 121.883 180.861C121.434 180.34 120.799 180.08 119.979 180.08Z" fill="white"></path> <path d="M132.146 178.645C132.622 178.645 133.042 178.684 133.406 178.762L133.191 180.383C132.794 180.292 132.407 180.246 132.029 180.246C131.463 180.246 130.936 180.402 130.447 180.715C129.965 181.027 129.588 181.46 129.314 182.014C129.041 182.561 128.904 183.169 128.904 183.84V189.562H127.146V178.84H128.592L128.787 180.803H128.865C129.275 180.093 129.76 179.556 130.32 179.191C130.88 178.827 131.489 178.645 132.146 178.645Z" fill="white"></path> <path d="M141.834 189.562L141.492 188.039H141.414C140.88 188.71 140.346 189.165 139.812 189.406C139.285 189.641 138.618 189.758 137.811 189.758C136.756 189.758 135.929 189.481 135.33 188.928C134.731 188.374 134.432 187.593 134.432 186.584C134.432 184.41 136.147 183.27 139.578 183.166L141.395 183.098V182.463C141.395 181.649 141.219 181.05 140.867 180.666C140.516 180.275 139.952 180.08 139.178 180.08C138.611 180.08 138.074 180.165 137.566 180.334C137.065 180.503 136.593 180.692 136.15 180.9L135.613 179.582C136.154 179.296 136.743 179.071 137.381 178.908C138.019 178.745 138.65 178.664 139.275 178.664C140.571 178.664 141.535 178.951 142.166 179.523C142.798 180.096 143.113 181.008 143.113 182.258V189.562H141.834ZM138.211 188.342C139.194 188.342 139.965 188.078 140.525 187.551C141.092 187.017 141.375 186.262 141.375 185.285V184.318L139.793 184.387C138.562 184.432 137.664 184.628 137.098 184.973C136.538 185.318 136.258 185.861 136.258 186.604C136.258 187.163 136.427 187.593 136.766 187.893C137.111 188.192 137.592 188.342 138.211 188.342Z" fill="white"></path> <path d="M148.201 189.562H146.443V174.367H148.201V189.562Z" fill="white"></path> <path d="M153.357 189.562H151.6V174.367H153.357V189.562Z" fill="white"></path> <path d="M168.494 189.562L163.787 177.043H163.709C163.807 178.085 163.855 179.37 163.855 180.9V189.562H162.195V175.285H164.852L169.256 186.984H169.334L173.816 175.285H176.453V189.562H174.676V180.783C174.676 179.807 174.721 178.566 174.812 177.062H174.734L169.969 189.562H168.494Z" fill="white"></path> <path d="M178.396 175.285H180.281L183.494 184.445C183.904 185.604 184.204 186.643 184.393 187.561C184.555 186.74 184.858 185.689 185.301 184.406L188.494 175.285H190.398L185.301 189.562H183.494L178.396 175.285Z" fill="white"></path> <path d="M201.492 179.484C201.492 180.943 200.994 182.062 199.998 182.844C199.002 183.618 197.599 184.006 195.789 184.006H194.148V189.562H192.352V175.285H196.131C199.705 175.285 201.492 176.685 201.492 179.484ZM194.148 182.463H195.584C197.003 182.463 198.032 182.235 198.67 181.779C199.308 181.317 199.627 180.578 199.627 179.562C199.627 178.645 199.331 177.958 198.738 177.502C198.146 177.046 197.221 176.818 195.965 176.818H194.148V182.463Z" fill="white"></path> <path d="M218.729 184.182C218.729 185.933 218.286 187.3 217.4 188.283C216.515 189.266 215.291 189.758 213.729 189.758C212.758 189.758 211.899 189.533 211.15 189.084C210.402 188.628 209.826 187.977 209.422 187.131C209.018 186.285 208.816 185.301 208.816 184.182C208.816 182.437 209.253 181.079 210.125 180.109C210.997 179.133 212.221 178.645 213.797 178.645C215.307 178.645 216.505 179.143 217.391 180.139C218.283 181.128 218.729 182.476 218.729 184.182ZM210.633 184.182C210.633 185.529 210.896 186.555 211.424 187.258C211.958 187.954 212.742 188.303 213.777 188.303C214.799 188.303 215.577 187.954 216.111 187.258C216.645 186.555 216.912 185.529 216.912 184.182C216.912 182.834 216.642 181.822 216.102 181.145C215.568 180.461 214.783 180.119 213.748 180.119C211.671 180.119 210.633 181.473 210.633 184.182Z" fill="white"></path> <path d="M226.463 180.207H223.758V189.562H222V180.207H220.125V179.387L222 178.781V178.166C222 176.864 222.283 175.887 222.85 175.236C223.423 174.585 224.301 174.26 225.486 174.26C226.17 174.26 226.863 174.38 227.566 174.621L227.098 175.998C226.492 175.803 225.962 175.705 225.506 175.705C224.913 175.705 224.474 175.9 224.188 176.291C223.901 176.682 223.758 177.3 223.758 178.146V178.84H226.463V180.207Z" fill="white"></path> <path d="M237.195 188.322C237.423 188.322 237.69 188.299 237.996 188.254C238.302 188.208 238.533 188.156 238.689 188.098V189.445C238.527 189.517 238.273 189.585 237.928 189.65C237.589 189.722 237.244 189.758 236.893 189.758C234.796 189.758 233.748 188.654 233.748 186.447V180.207H232.234V179.367L233.768 178.664L234.471 176.379H235.516V178.84H238.611V180.207H235.516V186.398C235.516 187.017 235.662 187.492 235.955 187.824C236.255 188.156 236.668 188.322 237.195 188.322Z" fill="white"></path> <path d="M248.143 189.562V182.707C248.143 181.835 247.947 181.187 247.557 180.764C247.173 180.334 246.567 180.119 245.74 180.119C244.653 180.119 243.855 180.422 243.348 181.027C242.846 181.633 242.596 182.632 242.596 184.025V189.562H240.838V174.367H242.596V178.82C242.596 179.406 242.563 179.908 242.498 180.324H242.615C242.934 179.803 243.387 179.396 243.973 179.104C244.559 178.811 245.219 178.664 245.955 178.664C247.257 178.664 248.237 178.977 248.895 179.602C249.552 180.22 249.881 181.213 249.881 182.58V189.562H248.143Z" fill="white"></path> <path d="M257.762 189.758C256.154 189.758 254.891 189.273 253.973 188.303C253.061 187.326 252.605 185.985 252.605 184.279C252.605 182.561 253.032 181.193 253.885 180.178C254.738 179.156 255.89 178.645 257.342 178.645C258.689 178.645 259.764 179.081 260.564 179.953C261.365 180.819 261.766 181.994 261.766 183.479V184.543H254.422C254.454 185.76 254.764 186.685 255.35 187.316C255.936 187.948 256.766 188.264 257.84 188.264C258.413 188.264 258.956 188.215 259.471 188.117C259.985 188.013 260.587 187.814 261.277 187.521V189.064C260.685 189.318 260.128 189.497 259.607 189.602C259.087 189.706 258.471 189.758 257.762 189.758ZM257.322 180.08C256.482 180.08 255.818 180.35 255.33 180.891C254.842 181.431 254.552 182.183 254.461 183.146H259.92C259.907 182.144 259.676 181.382 259.227 180.861C258.777 180.34 258.143 180.08 257.322 180.08Z" fill="white"></path> <path d="M274.627 180.207H271.922V189.562H270.164V180.207H268.289V179.387L270.164 178.781V178.166C270.164 176.864 270.447 175.887 271.014 175.236C271.587 174.585 272.465 174.26 273.65 174.26C274.334 174.26 275.027 174.38 275.73 174.621L275.262 175.998C274.656 175.803 274.126 175.705 273.67 175.705C273.077 175.705 272.638 175.9 272.352 176.291C272.065 176.682 271.922 177.3 271.922 178.146V178.84H274.627V180.207Z" fill="white"></path> <path d="M281.141 189.758C279.533 189.758 278.27 189.273 277.352 188.303C276.44 187.326 275.984 185.985 275.984 184.279C275.984 182.561 276.411 181.193 277.264 180.178C278.117 179.156 279.269 178.645 280.721 178.645C282.068 178.645 283.143 179.081 283.943 179.953C284.744 180.819 285.145 181.994 285.145 183.479V184.543H277.801C277.833 185.76 278.143 186.685 278.729 187.316C279.314 187.948 280.145 188.264 281.219 188.264C281.792 188.264 282.335 188.215 282.85 188.117C283.364 188.013 283.966 187.814 284.656 187.521V189.064C284.064 189.318 283.507 189.497 282.986 189.602C282.465 189.706 281.85 189.758 281.141 189.758ZM280.701 180.08C279.861 180.08 279.197 180.35 278.709 180.891C278.221 181.431 277.931 182.183 277.84 183.146H283.299C283.286 182.144 283.055 181.382 282.605 180.861C282.156 180.34 281.521 180.08 280.701 180.08Z" fill="white"></path> <path d="M294.852 186.604C294.852 187.606 294.477 188.384 293.729 188.938C292.98 189.484 291.928 189.758 290.574 189.758C289.161 189.758 288.038 189.533 287.205 189.084V187.482C288.383 188.055 289.52 188.342 290.613 188.342C291.499 188.342 292.143 188.199 292.547 187.912C292.951 187.626 293.152 187.242 293.152 186.76C293.152 186.337 292.957 185.979 292.566 185.686C292.182 185.393 291.495 185.057 290.506 184.68C289.497 184.289 288.787 183.957 288.377 183.684C287.967 183.404 287.664 183.091 287.469 182.746C287.28 182.401 287.186 181.981 287.186 181.486C287.186 180.607 287.544 179.914 288.26 179.406C288.976 178.898 289.959 178.645 291.209 178.645C292.426 178.645 293.566 178.885 294.627 179.367L294.031 180.764C292.944 180.308 291.964 180.08 291.092 180.08C290.363 180.08 289.809 180.197 289.432 180.432C289.054 180.66 288.865 180.975 288.865 181.379C288.865 181.77 289.028 182.095 289.354 182.355C289.679 182.609 290.438 182.964 291.629 183.42C292.521 183.752 293.178 184.061 293.602 184.348C294.031 184.634 294.347 184.956 294.549 185.314C294.751 185.673 294.852 186.102 294.852 186.604Z" fill="white"></path> <path d="M301.043 188.322C301.271 188.322 301.538 188.299 301.844 188.254C302.15 188.208 302.381 188.156 302.537 188.098V189.445C302.374 189.517 302.12 189.585 301.775 189.65C301.437 189.722 301.092 189.758 300.74 189.758C298.644 189.758 297.596 188.654 297.596 186.447V180.207H296.082V179.367L297.615 178.664L298.318 176.379H299.363V178.84H302.459V180.207H299.363V186.398C299.363 187.017 299.51 187.492 299.803 187.824C300.102 188.156 300.516 188.322 301.043 188.322Z" fill="white"></path> <path d="M306.443 189.562H304.686V178.84H306.443V189.562ZM304.549 175.939C304.549 175.549 304.646 175.266 304.842 175.09C305.044 174.914 305.291 174.826 305.584 174.826C305.857 174.826 306.095 174.914 306.297 175.09C306.505 175.266 306.609 175.549 306.609 175.939C306.609 176.324 306.505 176.607 306.297 176.789C306.095 176.971 305.857 177.062 305.584 177.062C305.291 177.062 305.044 176.971 304.842 176.789C304.646 176.607 304.549 176.324 304.549 175.939Z" fill="white"></path> <path d="M312.205 189.562L308.143 178.84H310.027L312.303 185.158C312.752 186.428 313.038 187.375 313.162 188H313.24C313.26 187.915 313.283 187.821 313.309 187.717C313.341 187.606 313.377 187.489 313.416 187.365C313.455 187.235 313.696 186.499 314.139 185.158L316.424 178.84H318.299L314.227 189.562H312.205Z" fill="white"></path> <path d="M326.619 189.562L326.277 188.039H326.199C325.665 188.71 325.132 189.165 324.598 189.406C324.07 189.641 323.403 189.758 322.596 189.758C321.541 189.758 320.714 189.481 320.115 188.928C319.516 188.374 319.217 187.593 319.217 186.584C319.217 184.41 320.932 183.27 324.363 183.166L326.18 183.098V182.463C326.18 181.649 326.004 181.05 325.652 180.666C325.301 180.275 324.738 180.08 323.963 180.08C323.396 180.08 322.859 180.165 322.352 180.334C321.85 180.503 321.378 180.692 320.936 180.9L320.398 179.582C320.939 179.296 321.528 179.071 322.166 178.908C322.804 178.745 323.436 178.664 324.061 178.664C325.356 178.664 326.32 178.951 326.951 179.523C327.583 180.096 327.898 181.008 327.898 182.258V189.562H326.619ZM322.996 188.342C323.979 188.342 324.751 188.078 325.311 187.551C325.877 187.017 326.16 186.262 326.16 185.285V184.318L324.578 184.387C323.348 184.432 322.449 184.628 321.883 184.973C321.323 185.318 321.043 185.861 321.043 186.604C321.043 187.163 321.212 187.593 321.551 187.893C321.896 188.192 322.378 188.342 322.996 188.342Z" fill="white"></path> <path d="M332.986 189.562H331.229V174.367H332.986V189.562Z" fill="white"></path> <defs> <filter id="filter0_d" x="0.0234375" y="0" width="433.481" height="104.812" filterUnits="userSpaceOnUse" color-interpolation-filters="sRGB"> <feFlood flood-opacity="0" result="BackgroundImageFix"></feFlood> <feColorMatrix in="SourceAlpha" type="matrix" values="0 0 0 0 0 0 0 0 0 0 0 0 0 0 0 0 0 0 127 0"></feColorMatrix> <feOffset></feOffset> <feGaussianBlur stdDeviation="12"></feGaussianBlur> <feColorMatrix type="matrix" values="0 0 0 0 0.984314 0 0 0 0 0.807843 0 0 0 0 0.396078 0 0 0 0.6 0"></feColorMatrix> <feBlend mode="normal" in2="BackgroundImageFix" result="effect1_dropShadow"></feBlend> <feBlend mode="normal" in="SourceGraphic" in2="effect1_dropShadow" result="shape"></feBlend> </filter> <filter id="filter1_d" x="0.71875" y="82.0938" width="591.094" height="84.9375" filterUnits="userSpaceOnUse" color-interpolation-filters="sRGB"> <feFlood flood-opacity="0" result="BackgroundImageFix"></feFlood> <feColorMatrix in="SourceAlpha" type="matrix" values="0 0 0 0 0 0 0 0 0 0 0 0 0 0 0 0 0 0 127 0"></feColorMatrix> <feOffset></feOffset> <feGaussianBlur stdDeviation="12"></feGaussianBlur> <feColorMatrix type="matrix" values="0 0 0 0 0.984314 0 0 0 0 0.807843 0 0 0 0 0.396078 0 0 0 0.6 0"></feColorMatrix> <feBlend mode="normal" in2="BackgroundImageFix" result="effect1_dropShadow"></feBlend> <feBlend mode="normal" in="SourceGraphic" in2="effect1_dropShadow" result="shape"></feBlend> </filter> <linearGradient id="paint0_linear" x1="217.055" y1="4.5625" x2="217.055" y2="91.5625" gradientUnits="userSpaceOnUse"> <stop stop-color="#FBCE65"></stop> <stop offset="1" stop-color="#FF9900"></stop> </linearGradient> <linearGradient id="paint1_linear" x1="217.055" y1="4.5625" x2="217.055" y2="91.5625" gradientUnits="userSpaceOnUse"> <stop stop-color="#FBCE65"></stop> <stop offset="1" stop-color="#FF9900"></stop> </linearGradient> <linearGradient id="paint2_linear" x1="217.055" y1="4.5625" x2="217.055" y2="91.5625" gradientUnits="userSpaceOnUse"> <stop stop-color="#FBCE65"></stop> <stop offset="1" stop-color="#FF9900"></stop> </linearGradient> <linearGradient id="paint3_linear" x1="217.055" y1="4.5625" x2="217.055" y2="91.5625" gradientUnits="userSpaceOnUse"> <stop stop-color="#FBCE65"></stop> <stop offset="1" stop-color="#FF9900"></stop> </linearGradient> <linearGradient id="paint4_linear" x1="217.055" y1="4.5625" x2="217.055" y2="91.5625" gradientUnits="userSpaceOnUse"> <stop stop-color="#FBCE65"></stop> <stop offset="1" stop-color="#FF9900"></stop> </linearGradient> <linearGradient id="paint5_linear" x1="217.055" y1="4.5625" x2="217.055" y2="91.5625" gradientUnits="userSpaceOnUse"> <stop stop-color="#FBCE65"></stop> <stop offset="1" stop-color="#FF9900"></stop> </linearGradient> <linearGradient id="paint6_linear" x1="217.055" y1="4.5625" x2="217.055" y2="91.5625" gradientUnits="userSpaceOnUse"> <stop stop-color="#FBCE65"></stop> <stop offset="1" stop-color="#FF9900"></stop> </linearGradient> <linearGradient id="paint7_linear" x1="217.055" y1="4.5625" x2="217.055" y2="91.5625" gradientUnits="userSpaceOnUse"> <stop stop-color="#FBCE65"></stop> <stop offset="1" stop-color="#FF9900"></stop> </linearGradient> <linearGradient id="paint8_linear" x1="217.055" y1="4.5625" x2="217.055" y2="91.5625" gradientUnits="userSpaceOnUse"> <stop stop-color="#FBCE65"></stop> <stop offset="1" stop-color="#FF9900"></stop> </linearGradient> <linearGradient id="paint9_linear" x1="217.055" y1="4.5625" x2="217.055" y2="91.5625" gradientUnits="userSpaceOnUse"> <stop stop-color="#FBCE65"></stop> <stop offset="1" stop-color="#FF9900"></stop> </linearGradient> </defs> </svg> 